<?xml version="1.0"?>
<svg xmlns="http://www.w3.org/2000/svg" xmlns:xlink="http://www.w3.org/1999/xlink" xmlns:svgjs="http://svgjs.com/svgjs" version="1.1" width="512" height="512" x="0" y="0" viewBox="0 0 512 512" style="enable-background:new 0 0 512 512" xml:space="preserve" class=""><g><g xmlns="http://www.w3.org/2000/svg"><path d="m256 250.818c51.579 0 93.541-41.949 93.541-93.513 0-51.58-41.962-93.543-93.541-93.543s-93.541 41.963-93.541 93.543c0 51.564 41.962 93.513 93.541 93.513zm0-167.055c40.55 0 73.541 32.991 73.541 73.543 0 40.535-32.99 73.513-73.541 73.513s-73.541-32.978-73.541-73.513c0-40.552 32.991-73.543 73.541-73.543z" fill="#1b54a4" data-original="#000000" style="" class=""/><path d="m256 163.267c5.523 0 10-4.478 10-10v-35.758c0-5.522-4.477-10-10-10s-10 4.478-10 10v35.758c0 5.522 4.477 10 10 10z" fill="#1b54a4" data-original="#000000" style="" class=""/><path d="m256 207.058c5.523 0 10-4.492 10-10.015s-4.477-10-10-10-10 4.478-10 10v.029c0 5.523 4.477 9.986 10 9.986z" fill="#1b54a4" data-original="#000000" style="" class=""/><path d="m463.171 131.033h-52.331c-3.615-6.896-10.841-11.615-19.153-11.615h-4.386c-2.815-9.78-6.727-19.206-11.687-28.164l3.076-3.087c4.099-4.073 6.356-9.508 6.356-15.304s-2.257-11.23-6.329-15.276l-22.997-23.026c-4.07-4.071-9.497-6.313-15.281-6.313s-11.211 2.241-15.28 6.312l-3.115 3.115c-8.925-4.95-18.349-8.857-28.158-11.677v-4.384c0-11.918-9.696-21.614-21.614-21.614h-32.544c-11.918 0-21.614 9.696-21.614 21.614v4.384c-9.809 2.819-19.232 6.727-28.158 11.677l-3.115-3.114c-4.07-4.071-9.497-6.313-15.281-6.313s-11.211 2.241-15.285 6.316l-22.965 22.996c-4.099 4.073-6.356 9.508-6.356 15.304s2.257 11.23 6.322 15.269l3.111 3.122c-4.961 8.958-8.872 18.384-11.687 28.164h-4.386c-8.311 0-15.538 4.719-19.153 11.615h-52.568c-16.648 0-30.192 13.65-30.192 30.429v228.313c0 16.778 13.65 30.429 30.428 30.429h139.282l-14.9 31.735h-11.423c-16.567 0-30.045 13.479-30.045 30.046v20.014c0 5.522 4.477 10 10 10h228.513c5.523 0 10-4.478 10-10v-20.016c0-16.567-13.478-30.046-30.045-30.046h-11.423l-14.9-31.735h139.282c16.778 0 30.428-13.65 30.428-30.429v-228.312c.001-16.778-13.649-30.429-30.427-30.429zm-344.472 10c0-.86.754-1.615 1.614-1.615h12.145c4.68 0 8.733-3.245 9.758-7.812 2.902-12.941 8.007-25.249 15.172-36.581 2.496-3.947 1.927-9.096-1.369-12.403l-8.613-8.643c-.375-.372-.453-.813-.453-1.116s.079-.744.48-1.144l22.989-23.019c.375-.375.825-.453 1.138-.453.312 0 .763.078 1.138.454l8.607 8.607c3.312 3.313 8.477 3.883 12.431 1.371 11.255-7.145 23.557-12.246 36.565-15.163 4.566-1.024 7.812-5.078 7.812-9.758v-12.144c0-.875.739-1.614 1.614-1.614h32.544c.875 0 1.614.739 1.614 1.614v12.146c0 4.68 3.246 8.733 7.812 9.758 13.008 2.917 25.311 8.019 36.565 15.163 3.953 2.509 9.119 1.939 12.431-1.371l8.607-8.608c.375-.375.826-.453 1.138-.453.313 0 .763.078 1.134.449l23.021 23.05c.375.372.453.813.453 1.116s-.079.744-.488 1.151l-8.578 8.607c-3.296 3.308-3.865 8.456-1.369 12.403 7.166 11.332 12.27 23.64 15.172 36.581 1.024 4.566 5.078 7.812 9.758 7.812h12.145c.86 0 1.614.755 1.614 1.615v32.515c0 .86-.754 1.614-1.614 1.614h-12.145c-4.68 0-8.734 3.245-9.758 7.812-2.909 12.973-8.014 25.29-15.172 36.611-2.499 3.953-1.925 9.109 1.381 12.416l8.578 8.577c.636.637.636 1.672 0 2.308l-22.994 22.994c-.375.375-.825.453-1.138.453-.312 0-.763-.078-1.138-.454l-8.607-8.607c-3.311-3.312-8.476-3.882-12.431-1.371-11.255 7.145-23.557 12.246-36.565 15.163-4.566 1.024-7.812 5.078-7.812 9.758v12.146c0 .875-.739 1.614-1.614 1.614h-32.544c-.875 0-1.614-.739-1.614-1.614v-12.146c0-4.68-3.246-8.733-7.812-9.758-13.008-2.917-25.311-8.019-36.565-15.163-1.649-1.047-3.508-1.558-5.356-1.558-2.583 0-5.144.999-7.075 2.929l-8.607 8.608c-.375.375-.826.453-1.138.453-.313 0-.763-.078-1.138-.454l-22.993-22.992c-.636-.637-.636-1.672 0-2.308l8.578-8.578c3.306-3.307 3.88-8.463 1.381-12.416-7.159-11.321-12.264-23.639-15.172-36.611-1.024-4.566-5.078-7.812-9.758-7.812h-12.145c-.86 0-1.614-.754-1.614-1.614zm241.557 340.951v10.016h-208.512v-10.016c0-5.539 4.506-10.046 10.045-10.046h188.423c5.538 0 10.044 4.507 10.044 10.046zm-43.562-30.046h-121.388l14.9-31.735h91.589zm146.477-51.735h-414.342c-5.75 0-10.428-4.679-10.428-10.429v-17.032h274.904c5.523 0 10-4.478 10-10s-4.477-10-10-10h-274.904v-191.28c0-5.75 4.572-10.429 10.192-10.429h50.105v22.515c0 11.918 9.696 21.614 21.614 21.614h4.384c2.817 9.795 6.726 19.226 11.682 28.182l-3.093 3.094c-8.433 8.434-8.433 22.156 0 30.591l22.993 22.992c4.07 4.071 9.497 6.313 15.281 6.313s11.211-2.241 15.28-6.312l3.115-3.115c8.926 4.95 18.349 8.857 28.158 11.677v4.384c0 11.918 9.696 21.614 21.614 21.614h32.544c11.918 0 21.614-9.696 21.614-21.614v-4.384c9.809-2.819 19.232-6.727 28.158-11.677l3.115 3.114c4.07 4.071 9.497 6.313 15.281 6.313s11.211-2.241 15.281-6.312l22.993-22.994c8.433-8.434 8.433-22.156 0-30.591l-3.093-3.093c4.956-8.956 8.865-18.387 11.682-28.182h4.384c11.918 0 21.614-9.696 21.614-21.614v-22.515h49.87c5.75 0 10.428 4.679 10.428 10.429v191.28h-66.908c-5.523 0-10 4.478-10 10s4.477 10 10 10h66.908v17.032c.002 5.75-4.676 10.429-10.426 10.429z" fill="#1b54a4" data-original="#000000" style="" class=""/><path d="m359.998 352.742c-5.523 0-10 4.478-10 10s4.477 10 10 10h.03c5.523 0 9.985-4.478 9.985-10s-4.492-10-10.015-10z" fill="#1b54a4" data-original="#000000" style="" class=""/></g></g></svg>
