<svg xmlns="http://www.w3.org/2000/svg" width="340.7433" height="304.8795" viewBox="0 0 340.7433 304.8795"><defs><style>.cls-1{isolation:isolate;}.cls-2{fill:#72b5e8;}.cls-3{fill:#a8cff0;}.cls-4{fill:#d1ebff;}.cls-5,.cls-7{mix-blend-mode:color-dodge;}.cls-10,.cls-13,.cls-6,.cls-7{fill:#fff;}.cls-8{fill:#eb4680;}.cls-9{fill:#d62d69;}.cls-10{opacity:0.7;}.cls-11{fill:#3f92d1;}.cls-12{fill:#4f9fdb;}.cls-13{mix-blend-mode:screen;}.cls-14{fill:#03336e;}.cls-15{fill:#001a46;}.cls-16{fill:#fc0;}.cls-17{fill:#0fbab8;}.cls-18{fill:#2672ab;}.cls-19{fill:#084c94;}.cls-20{fill:#0ba19f;}.cls-21{fill:#ffd70f;}.cls-22{fill:#d99f00;}.cls-23{fill:#b08100;}.cls-24{fill:#ffde17;}.cls-25{fill:#3ecfcd;}.cls-26{fill:#f76195;}.cls-27{fill:#92b4d1;opacity:0.2;}</style></defs><g class="cls-1"><g id="Layer_1" data-name="Layer 1"><path class="cls-2" d="M563.71,210.0555c-7.6694-4.4279-13.8866-15.1514-13.8866-23.952a11.1043,11.1043,0,0,1,2.3343-7.4643c-4.2088.3046-7.0559,3.8283-7.0559,9.7749,0,8.8005,6.2171,19.5241,13.8865,23.952,4.8183,2.7817,9.049,2.3994,11.5356-.4428A12.0558,12.0558,0,0,1,563.71,210.0555Z" transform="translate(-275.0788 -33.3162)"/><path class="cls-3" d="M577.2064,207.1515a27.3948,27.3948,0,0,0-.2374-3.3664l5.6129-.71a50.7592,50.7592,0,0,0-2.5437-8.4977l-6.396-1.9341a44.9461,44.9461,0,0,0-3.981-6.8666l1.5326-6.4545a51.2834,51.2834,0,0,0-6.1256-6.4555l-3.4431,4.4534a27.8389,27.8389,0,0,0-2.8138-1.8974,21.6776,21.6776,0,0,0-2.8142-1.352l-3.4427-8.4289a17.0564,17.0564,0,0,0-6.1259-.6178l1.5326,8.2242a8.7833,8.7833,0,0,0-3.9807,2.27l-6.3959-5.4514a16.6961,16.6961,0,0,0-2.5442,5.56l5.613,7.1916a21.2535,21.2535,0,0,0-.2374,3.0922,27.3855,27.3855,0,0,0,.2374,3.3659l-5.613.71a50.7253,50.7253,0,0,0,2.5442,8.4979l6.3956,1.9343a44.9517,44.9517,0,0,0,3.981,6.8661l-1.5326,6.4545a51.2119,51.2119,0,0,0,6.1259,6.4558l3.4427-4.4532a27.8694,27.8694,0,0,0,2.8142,1.8972,21.6819,21.6819,0,0,0,2.8138,1.3521l3.4431,8.4288a17.04,17.04,0,0,0,6.1256.6176l-1.5326-8.2242a8.7832,8.7832,0,0,0,3.981-2.2693l6.396,5.4509a16.7069,16.7069,0,0,0,2.5437-5.56l-5.6129-7.1916A21.25,21.25,0,0,0,577.2064,207.1515Zm-18.2184,5.2146c-7.6693-4.4279-13.8864-15.1515-13.8864-23.952s6.2171-12.3451,13.8864-7.9173,13.8865,15.1515,13.8865,23.952S566.6573,216.794,558.988,212.3661Z" transform="translate(-275.0788 -33.3162)"/><polygon class="cls-2" points="286.298 137.664 282.855 129.236 277.476 132.325 280.918 140.754 286.298 137.664"/><path class="cls-4" d="M555.9971,174.0705a21.6776,21.6776,0,0,1,2.8142,1.352,27.8513,27.8513,0,0,1,2.8139,1.8974l3.4425-4.4528-.0012.0007s-.5817-.3653-.8759-.5351a21.6776,21.6776,0,0,0-2.8142-1.352Z" transform="translate(-275.0788 -33.3162)"/><path class="cls-4" d="M557.9337,162.5518a17.0545,17.0545,0,0,0-6.126-.6178l-5.3792,3.09a17.0564,17.0564,0,0,1,6.1259.6178Z" transform="translate(-275.0788 -33.3162)"/><path class="cls-4" d="M576.5731,176.2322a51.2844,51.2844,0,0,0-6.1256-6.4556l-5.379,3.09a51.2867,51.2867,0,0,1,6.1253,6.4553Z" transform="translate(-275.0788 -33.3162)"/><polygon class="cls-2" points="296.115 146.006 294.582 152.46 299.962 149.37 301.494 142.916 296.115 146.006"/><path class="cls-2" d="M569.6612,185.7765a44.9378,44.9378,0,0,1,3.981,6.8666l5.3793-3.09a44.9413,44.9413,0,0,0-3.981-6.8666Z" transform="translate(-275.0788 -33.3162)"/><polygon class="cls-4" points="298.563 159.327 304.959 161.261 310.339 158.171 303.943 156.237 298.563 159.327"/><path class="cls-2" d="M580.0382,194.5772a50.7592,50.7592,0,0,1,2.5437,8.4977l5.3794-3.09a50.7612,50.7612,0,0,0-2.5439-8.4978Z" transform="translate(-275.0788 -33.3162)"/><path class="cls-2" d="M547.961,173.2479l-.4457-2.3918-4.5515-3.8794-5.3793,3.09,6.3959,5.4514A8.7846,8.7846,0,0,1,547.961,173.2479Z" transform="translate(-275.0788 -33.3162)"/><path class="cls-2" d="M582.5819,217.4348a16.7075,16.7075,0,0,1-2.5437,5.56l5.3792-3.09a16.7086,16.7086,0,0,0,2.5439-5.56Z" transform="translate(-275.0788 -33.3162)"/><path class="cls-2" d="M582.3483,207.1535a21.2508,21.2508,0,0,0,.2373-3.0919c0-.3239-.0212-.6537-.0386-.9823l-5.578.7058a27.3946,27.3946,0,0,1,.2374,3.3663,21.25,21.25,0,0,1-.2374,3.0919Z" transform="translate(-275.0788 -33.3162)"/><polygon class="cls-4" points="301.89 176.927 307.503 184.119 312.882 181.029 307.269 173.837 301.89 176.927"/><path class="cls-2" d="M573.6422,217.5443a8.7826,8.7826,0,0,1-3.981,2.2693l1.5326,8.2242,5.3793-3.09-1.0868-5.8321Z" transform="translate(-275.0788 -33.3162)"/><path class="cls-4" d="M540.4513,186.8109l-5.411,3.1758,5.613-.71C540.55,188.4462,540.4864,187.6246,540.4513,186.8109Z" transform="translate(-275.0788 -33.3162)"/><path class="cls-2" d="M555.9971,215.7421l-3.4427,4.4532,5.419-3.0841C557.3063,216.6838,556.646,216.2313,555.9971,215.7421Z" transform="translate(-275.0788 -33.3162)"/><g class="cls-5"><path class="cls-6" d="M547.3066,173.6193l-.0155-.0831c-.2561.0984-.5016.2159-.7453.3365C546.7963,173.7825,547.045,173.6882,547.3066,173.6193Z" transform="translate(-275.0788 -33.3162)"/><path class="cls-6" d="M539.971,189.372l-4.66.5894c.0182.09.043.1812.0618.2716l4.6262-.5854C539.9873,189.5553,539.9819,189.4641,539.971,189.372Z" transform="translate(-275.0788 -33.3162)"/><path class="cls-6" d="M570.8927,179.6731l-1.5327,6.4545a44.9311,44.9311,0,0,1,3.981,6.8664l6.3961,1.9342a50.9575,50.9575,0,0,1,2.482,8.2261l.6334-.1046a50.7465,50.7465,0,0,0-2.5438-8.4977l-6.3958-1.9341a44.9617,44.9617,0,0,0-3.981-6.8665l1.5325-6.4545a51.2853,51.2853,0,0,0-6.1256-6.4557l-.2105.7092A51.5815,51.5815,0,0,1,570.8927,179.6731Z" transform="translate(-275.0788 -33.3162)"/><path class="cls-6" d="M559.0351,212.26c-7.6694-4.4282-13.8866-15.1517-13.8866-23.9521,0-3.8873,1.22-6.7363,3.2374-8.3335-2.3311,1.5008-3.7648,4.495-3.7648,8.71,0,8.8005,6.2172,19.524,13.8866,23.9521,3.872,2.2353,7.3707,2.4329,9.8893.9537-.1859.0571-.3816.0942-.5747.1367C565.4285,214.5958,562.3713,214.1859,559.0351,212.26Z" transform="translate(-275.0788 -33.3162)"/><path class="cls-6" d="M570.6941,219.5345a8.7173,8.7173,0,0,0,2.53-1.4172l-.2368-.2018A8.766,8.766,0,0,1,570.6941,219.5345Z" transform="translate(-275.0788 -33.3162)"/><path class="cls-6" d="M543.778,175.6631c-.2335.01.0008-.1822.2364-.3722l-6.1593-5.25c-.1746.2418-.3322.5057-.0424.5375Z" transform="translate(-275.0788 -33.3162)"/><path class="cls-7" d="M569.509,220.185l1.4669,7.8706c-.17-.0085.1648-.0128.4885-.043l-1.517-8.141C569.6407,219.9893,569.33,220.1,569.509,220.185Z" transform="translate(-275.0788 -33.3162)"/><path class="cls-6" d="M577.4769,207.1263a26.5007,26.5007,0,0,0-.21-3.09l-.5584.0419a27.4128,27.4128,0,0,1,.2373,3.3664,21.2623,21.2623,0,0,1-.2373,3.0918l5.6129,7.1915a17.1579,17.1579,0,0,1-2.0493,4.7968l.0361.4457a16.7021,16.7021,0,0,0,2.5438-5.56l-5.6129-7.1915A21.2368,21.2368,0,0,0,577.4769,207.1263Z" transform="translate(-275.0788 -33.3162)"/><path class="cls-6" d="M552.32,165.8652l3.4428,8.429a21.6838,21.6838,0,0,1,2.8142,1.352,27.8676,27.8676,0,0,1,2.8136,1.8972l.1079-.5345a26.3127,26.3127,0,0,0-2.4164-1.6115,21.6713,21.6713,0,0,0-2.8142-1.352l-3.4426-8.429a17.0571,17.0571,0,0,0-6.126-.6179l.066.3537A20.0543,20.0543,0,0,1,552.32,165.8652Z" transform="translate(-275.0788 -33.3162)"/><path class="cls-6" d="M555.3427,216.1134l-2.8789,3.7239c.1214.109.2391.2255.3613.3328l2.9151-3.771C555.6083,216.3021,555.474,216.2125,555.3427,216.1134Z" transform="translate(-275.0788 -33.3162)"/></g><path class="cls-2" d="M561.7147,144.0131c-11.5366-6.6607-20.8888-22.7914-20.8888-36.03,0-4.91,1.3009-8.71,3.5114-11.228-6.3311.4582-10.6137,5.7586-10.6137,14.7037,0,13.238,9.352,29.3688,20.8885,36.0293,7.2478,4.1844,13.6118,3.6093,17.3521-.6661A18.1342,18.1342,0,0,1,561.7147,144.0131Z" transform="translate(-275.0788 -33.3162)"/><path class="cls-3" d="M582.0167,139.6447a41.1876,41.1876,0,0,0-.3571-5.0638l8.4433-1.0684a76.35,76.35,0,0,0-3.8265-12.7825l-9.621-2.9093a67.598,67.598,0,0,0-5.9883-10.3289l2.3053-9.7091a77.14,77.14,0,0,0-9.2142-9.7107l-5.1792,6.699a41.9149,41.9149,0,0,0-4.2327-2.8542,32.6259,32.6259,0,0,0-4.2332-2.0336l-5.1787-12.6791a25.6566,25.6566,0,0,0-9.2148-.9294l2.3054,12.3711a13.2123,13.2123,0,0,0-5.9878,3.4145l-9.6211-8.2a25.1173,25.1173,0,0,0-3.827,8.3638l8.4433,10.8179a31.97,31.97,0,0,0-.3571,4.6514,41.196,41.196,0,0,0,.3571,5.0631l-8.4433,1.0684a76.3169,76.3169,0,0,0,3.827,12.7828l9.62,2.91a67.6245,67.6245,0,0,0,5.9884,10.3283l-2.3054,9.709a77.0433,77.0433,0,0,0,9.2148,9.7111l5.1787-6.6987a41.9052,41.9052,0,0,0,4.2332,2.8538,32.6206,32.6206,0,0,0,4.2327,2.034l5.1792,12.6787a25.6315,25.6315,0,0,0,9.2142.9291l-2.3053-12.3711a13.2128,13.2128,0,0,0,5.9883-3.4136l9.621,8.2a25.1311,25.1311,0,0,0,3.8265-8.3641L581.66,144.2955A31.95,31.95,0,0,0,582.0167,139.6447Zm-27.4046,7.844c-11.5364-6.6606-20.8885-22.7914-20.8885-36.0294s9.3521-18.57,20.8885-11.9094,20.8885,22.7913,20.8885,36.0293S566.1485,154.1492,554.6121,147.4887Z" transform="translate(-275.0788 -33.3162)"/><polygon class="cls-2" points="283.126 51.919 277.947 39.24 269.856 43.888 275.034 56.567 283.126 51.919"/><path class="cls-4" d="M550.1131,89.8831a32.6208,32.6208,0,0,1,4.2332,2.0337,41.8982,41.8982,0,0,1,4.2327,2.8542l5.1784-6.698-.0018.001s-.875-.5494-1.3176-.805a32.6208,32.6208,0,0,0-4.2332-2.0337Z" transform="translate(-275.0788 -33.3162)"/><path class="cls-4" d="M553.0262,72.5563a25.6574,25.6574,0,0,0-9.2149-.9294L535.72,76.2747a25.66,25.66,0,0,1,9.2149.9294Z" transform="translate(-275.0788 -33.3162)"/><path class="cls-4" d="M581.0642,93.1348a77.1546,77.1546,0,0,0-9.2143-9.7107l-8.0914,4.6482a77.1337,77.1337,0,0,1,9.2139,9.71Z" transform="translate(-275.0788 -33.3162)"/><polygon class="cls-2" points="297.894 64.466 295.588 74.175 303.68 69.528 305.985 59.819 297.894 64.466"/><path class="cls-2" d="M570.6671,107.4917a67.6038,67.6038,0,0,1,5.9883,10.329l8.0917-4.6478a67.6038,67.6038,0,0,0-5.9883-10.329Z" transform="translate(-275.0788 -33.3162)"/><polygon class="cls-4" points="301.577 84.504 311.198 87.414 319.289 82.766 309.668 79.857 301.577 84.504"/><path class="cls-2" d="M586.2764,120.73a76.34,76.34,0,0,1,3.8265,12.7825l8.0918-4.6478a76.363,76.363,0,0,0-3.8265-12.7826Z" transform="translate(-275.0788 -33.3162)"/><path class="cls-2" d="M538.0249,88.6458l-.67-3.5979-6.8467-5.8355L522.4161,83.86l9.6211,8.2A13.2125,13.2125,0,0,1,538.0249,88.6458Z" transform="translate(-275.0788 -33.3162)"/><path class="cls-2" d="M590.1029,155.1133a25.1291,25.1291,0,0,1-3.8265,8.3641l8.0918-4.6478a25.1345,25.1345,0,0,0,3.8265-8.3642Z" transform="translate(-275.0788 -33.3162)"/><path class="cls-2" d="M589.7514,139.6477a31.9653,31.9653,0,0,0,.3571-4.6509c0-.4872-.032-.9834-.0581-1.4777l-8.3907,1.0618a41.2066,41.2066,0,0,1,.357,5.0637,31.9658,31.9658,0,0,1-.357,4.6509Z" transform="translate(-275.0788 -33.3162)"/><polygon class="cls-4" points="306.581 110.979 315.024 121.797 323.116 117.149 314.673 106.331 306.581 110.979"/><path class="cls-2" d="M576.6554,155.2779a13.2128,13.2128,0,0,1-5.9883,3.4136l2.3053,12.3711,8.0918-4.6478-1.6349-8.7728Z" transform="translate(-275.0788 -33.3162)"/><path class="cls-4" d="M526.7285,109.0477l-8.1393,4.7771,8.4432-1.0685C526.8768,111.5075,526.7813,110.2717,526.7285,109.0477Z" transform="translate(-275.0788 -33.3162)"/><path class="cls-2" d="M550.1131,152.5669l-5.1786,6.6987,8.1514-4.6392C552.0824,153.9835,551.0891,153.3029,550.1131,152.5669Z" transform="translate(-275.0788 -33.3162)"/><g class="cls-5"><path class="cls-6" d="M537.0405,89.2044l-.0233-.1249c-.3853.1479-.7545.3247-1.1212.5061C536.2728,89.45,536.647,89.3081,537.0405,89.2044Z" transform="translate(-275.0788 -33.3162)"/><path class="cls-6" d="M526.0061,112.9l-7.01.8867c.0274.136.0646.2726.0929.4086l6.9589-.8806C526.0306,113.1759,526.0224,113.0387,526.0061,112.9Z" transform="translate(-275.0788 -33.3162)"/><path class="cls-6" d="M572.52,98.3107,570.214,108.02a67.5976,67.5976,0,0,1,5.9884,10.3288l9.6211,2.9094a76.6525,76.6525,0,0,1,3.7336,12.3739l.9528-.1572a76.3465,76.3465,0,0,0-3.8264-12.7825l-9.6209-2.9095a67.6257,67.6257,0,0,0-5.9883-10.3287l2.3051-9.7091a77.1277,77.1277,0,0,0-9.2143-9.7109l-.3165,1.0667A77.5988,77.5988,0,0,1,572.52,98.3107Z" transform="translate(-275.0788 -33.3162)"/><path class="cls-6" d="M554.683,147.329c-11.5366-6.6609-20.8888-22.7916-20.8888-36.03,0-5.8474,1.8346-10.1329,4.87-12.5356-3.5066,2.2577-5.6633,6.7617-5.6633,13.1023,0,13.2379,9.3522,29.3686,20.8888,36.03,5.8244,3.3624,11.0872,3.66,14.8758,1.4346-.28.0859-.574.1417-.8644.2057C564.3,150.8426,559.7014,150.2262,554.683,147.329Z" transform="translate(-275.0788 -33.3162)"/><path class="cls-6" d="M572.2207,158.2717a13.1143,13.1143,0,0,0,3.8064-2.1319l-.3562-.3035A13.1848,13.1848,0,0,1,572.2207,158.2717Z" transform="translate(-275.0788 -33.3162)"/><path class="cls-6" d="M531.7327,92.2788c-.3512.015.0011-.2742.3555-.56l-9.265-7.8967c-.2626.3638-.5.7607-.0637.8085Z" transform="translate(-275.0788 -33.3162)"/><path class="cls-7" d="M570.4382,159.25l2.2064,11.8393c-.2553-.0128.2479-.0192.7348-.0647l-2.2819-12.246C570.6363,158.9557,570.1689,159.1217,570.4382,159.25Z" transform="translate(-275.0788 -33.3162)"/><path class="cls-6" d="M582.4237,139.6069a39.8919,39.8919,0,0,0-.3151-4.6488l-.84.0631a41.2241,41.2241,0,0,1,.3571,5.0638,31.9779,31.9779,0,0,1-.3571,4.6508l8.4433,10.8177a25.8141,25.8141,0,0,1-3.0827,7.2155l.0544.67a25.1276,25.1276,0,0,0,3.8264-8.364l-8.4432-10.8177A31.95,31.95,0,0,0,582.4237,139.6069Z" transform="translate(-275.0788 -33.3162)"/><path class="cls-6" d="M544.5815,77.5405,549.76,90.22a32.5891,32.5891,0,0,1,4.2332,2.0338,41.8955,41.8955,0,0,1,4.2324,2.8538l.1623-.8041a39.5826,39.5826,0,0,0-3.6349-2.424,32.5964,32.5964,0,0,0-4.2332-2.0338l-5.1785-12.6791a25.6574,25.6574,0,0,0-9.2149-.93l.0993.5321A30.1653,30.1653,0,0,1,544.5815,77.5405Z" transform="translate(-275.0788 -33.3162)"/><path class="cls-6" d="M549.1287,153.1255l-4.3305,5.6016c.1826.164.36.3393.5434.5006l4.3849-5.6724C549.5282,153.4094,549.3261,153.2746,549.1287,153.1255Z" transform="translate(-275.0788 -33.3162)"/></g><path class="cls-8" d="M564.8033,71.6242c.0636-1.3379.9824-1.9216,2.0523-1.304a4.2012,4.2012,0,0,1,1.822,3.5408c-.0636,1.3378-.9825,1.9216-2.0523,1.3039A4.201,4.201,0,0,1,564.8033,71.6242Z" transform="translate(-275.0788 -33.3162)"/><path class="cls-8" d="M558.8171,231.66c.0423-.89.6535-1.2781,1.3651-.8673a2.7946,2.7946,0,0,1,1.2119,2.3552c-.0423.89-.6535,1.2782-1.3651.8673A2.7944,2.7944,0,0,1,558.8171,231.66Z" transform="translate(-275.0788 -33.3162)"/><path class="cls-8" d="M597.9276,166.9531a.5.5,0,0,1-.4317-.752l2.3975-4.1108a.5.5,0,1,1,.8633.5039l-1.752,3.0039,3.5371-1.0894a.5.5,0,0,1,.2949.9561l-4.7617,1.4663A.5154.5154,0,0,1,597.9276,166.9531Z" transform="translate(-275.0788 -33.3162)"/><path class="cls-9" d="M556.4031,185.0756a11.4676,11.4676,0,0,1,4.4578,5.3831,12.0111,12.0111,0,0,0,1.4782-.5015,3.946,3.946,0,0,1,3.4317.5268,11.6531,11.6531,0,0,1,5.2885,9.1215c0,6.1255-10.4858,8.2472-10.4858,8.2472s-9.9719-13.3289-9.9719-19.4544c0-1.6718-.7092-2.1868.2438-2.7341.0822-.0472,1.9788-1.0561,2.0663-1.0939A3.9128,3.9128,0,0,1,556.4031,185.0756Z" transform="translate(-275.0788 -33.3162)"/><path class="cls-8" d="M554.6371,186.0286a11.6413,11.6413,0,0,1,4.6837,5.9608c.884-1.4244,2.6484-1.7276,4.684-.5524a11.653,11.653,0,0,1,5.2884,9.1215c0,6.1255-9.9724,7.9395-9.9724,7.9395s-9.9719-13.3289-9.9719-19.4544C549.3489,185.6924,551.7164,184.3423,554.6371,186.0286Z" transform="translate(-275.0788 -33.3162)"/><g class="cls-5"><path class="cls-10" d="M554.3471,186.1545a12.0668,12.0668,0,0,1,4.92,5.9689c.18-.29-.0673-.1814.18-.3753a11.54,11.54,0,0,0-4.5523-5.6387c-1.5956-.9212-2.8091-1.1388-3.7566-.5548A4.1069,4.1069,0,0,1,554.3471,186.1545Z" transform="translate(-275.0788 -33.3162)"/><path class="cls-10" d="M564.1455,191.4131c-1.5927-.92-2.8353-.9382-3.6288-.4453a4.0918,4.0918,0,0,1,3.1982.5952,11.6531,11.6531,0,0,1,5.2884,9.1215c0,2.8459-2.1528,4.76-4.4577,5.9951,2.5751-1.2071,4.8883-2.9777,4.8883-6.145A11.653,11.653,0,0,0,564.1455,191.4131Z" transform="translate(-275.0788 -33.3162)"/></g><path class="cls-8" d="M599.4481,166.2719l-.6719-.74c5.3818-4.8863,8.2266-12.8511,8.2266-23.0347,0-25.34-17.9668-56.33-40.0508-69.08l.5-.8662c22.3594,12.91,40.5508,44.2871,40.5508,69.9458C608.0028,152.97,605.0447,161.1913,599.4481,166.2719Z" transform="translate(-275.0788 -33.3162)"/><path class="cls-3" d="M615.3153,149.206h-.0079a.5.5,0,0,1-.4921-.5073q.0072-.4937.0068-.9947a.5.5,0,0,1,1,0q0,.5084-.0068,1.0093A.5.5,0,0,1,615.3153,149.206Z" transform="translate(-275.0788 -33.3162)"/><path class="cls-3" d="M587.7928,183.8549a.5.5,0,0,1-.0039-1c.6514-.0049,1.3066-.0312,1.95-.08a.5.5,0,0,1,.0742.9981c-.665.05-1.3437.0771-2.0166.082Zm-2.9736-.1152c-.0147,0-.0284-.001-.043-.002q-.9888-.0834-2.001-.2256a.5.5,0,0,1-.4258-.5644.51.51,0,0,1,.5645-.4258q.9843.1392,1.9463.22a.5.5,0,0,1-.041.9981Zm7.9062-.3418a.5.5,0,0,1-.0889-.9922c.6407-.1172,1.28-.2588,1.9-.4219a.5.5,0,1,1,.2539.9668c-.6445.17-1.3086.3174-1.9746.4395A.567.567,0,0,1,592.7254,183.3979Zm4.7656-1.3545a.5.5,0,0,1-.1845-.9649c.6015-.2382,1.1982-.5029,1.7744-.7861a.5.5,0,0,1,.4414.8965c-.6.2959-1.2217.5713-1.8467.8193A.4914.4914,0,0,1,597.491,182.0434Zm4.3907-2.2813a.5.5,0,0,1-.2754-.917c.541-.3584,1.0722-.7412,1.5771-1.1376a.5.5,0,1,1,.6172.7871c-.5264.413-1.0791.8115-1.6435,1.1845A.4936.4936,0,0,1,601.8817,179.7621Zm3.8369-3.1367a.5.5,0,0,1-.3535-.8535c.456-.457.8994-.9375,1.3193-1.4277a.5.5,0,1,1,.76.65c-.4356.51-.8975,1.0087-1.3721,1.4843A.4983.4983,0,0,1,605.7186,176.6254Zm3.1543-3.8183a.5.5,0,0,1-.4131-.7823c.3662-.5346.7178-1.0883,1.0469-1.646a.5.5,0,0,1,.8613.5078c-.34.5767-.7041,1.15-1.082,1.7027A.501.501,0,0,1,608.8729,172.8071Zm2.4541-4.3057a.4889.4889,0,0,1-.2129-.0479.5.5,0,0,1-.2393-.6655q.4116-.8723.7823-1.7925a.5.5,0,1,1,.9277.3741q-.3823.9462-.8057,1.8452A.4992.4992,0,0,1,611.327,168.5014Zm1.7969-4.62a.4994.4994,0,0,1-.4766-.65q.29-.9228.5439-1.8843a.5.5,0,0,1,.9668.2549q-.2592.9851-.5576,1.93A.5.5,0,0,1,613.1239,163.8813Zm1.2138-4.81a.5007.5007,0,0,1-.4922-.5957q.1861-.9515.3369-1.9355a.5.5,0,1,1,.9883.1513q-.1537,1.005-.3427,1.9756A.5.5,0,0,1,614.3377,159.0712Zm.707-4.91a.3988.3988,0,0,1-.0488-.0025.5.5,0,0,1-.45-.5454q.0938-.9675.1563-1.9624a.4853.4853,0,0,1,.53-.4678.5.5,0,0,1,.4678.53q-.063,1.0122-.1582,1.9956A.5007.5007,0,0,1,615.0447,154.1616Z" transform="translate(-275.0788 -33.3162)"/><path class="cls-3" d="M579.8631,182.975a.51.51,0,0,1-.1074-.0117q-.4922-.1085-.9863-.2314a.5.5,0,1,1,.24-.9707q.4835.12.9609.2255a.5.5,0,0,1-.1074.9883Z" transform="translate(-275.0788 -33.3162)"/><path class="cls-3" d="M515.8289,103.8266a.5008.5008,0,0,1-.4912-.4111c-.06-.3311-.1181-.6617-.1728-.9922a.5.5,0,0,1,.9863-.1641q.082.4885.1709.9785a.5009.5009,0,0,1-.4033.5811A.515.515,0,0,1,515.8289,103.8266Z" transform="translate(-275.0788 -33.3162)"/><path class="cls-3" d="M608.0174,113.9853a.5016.5016,0,0,1-.4639-.3125q-.3764-.9339-.7744-1.8638a.5.5,0,0,1,.92-.3926q.4.939.7823,1.8814a.5005.5005,0,0,1-.4639.6875Zm-2.0059-4.6548a.5.5,0,0,1-.455-.2925q-.419-.9169-.8545-1.83a.5.5,0,1,1,.9023-.4316q.4395.9207.8623,1.8462a.5007.5007,0,0,1-.247.6626A.51.51,0,0,1,606.0115,109.3305Zm-2.2031-4.564a.5021.5021,0,0,1-.4463-.2734q-.4556-.8994-.9287-1.7925a.5.5,0,1,1,.8828-.4678q.4776.9.9385,1.8072a.5.5,0,0,1-.4463.7265Zm-2.3877-4.4682a.4988.4988,0,0,1-.4355-.2549q-.4952-.88-1.002-1.7525a.5.5,0,1,1,.8633-.5029q.5127.8783,1.01,1.7652a.5.5,0,0,1-.4356.7451Zm-86.2158-.461a.5.5,0,0,1-.4951-.4345q-.1333-1.0137-.2422-2.0225a.5.5,0,1,1,.9941-.1074q.1085.9967.24,1.999a.5007.5007,0,0,1-.4307.561A.4926.4926,0,0,1,515.2049,99.8373Zm83.6484-3.9033a.5.5,0,0,1-.4257-.2378q-.5289-.859-1.0713-1.7085a.5.5,0,1,1,.8418-.5381q.5478.8556,1.081,1.7222a.5.5,0,0,1-.4258.7622ZM514.7,94.8a.5.5,0,0,1-.498-.4663q-.0688-1.0216-.1094-2.0361a.5.5,0,0,1,.4805-.5191l.0195,0a.5.5,0,0,1,.5.48q.0381.999.1074,2.0078a.5.5,0,0,1-.4648.5327Zm81.4092-3.12a.4989.4989,0,0,1-.4141-.22q-.5653-.8357-1.1416-1.6616a.5.5,0,0,1,.82-.5723q.58.8313,1.1494,1.6743a.4994.4994,0,0,1-.4141.78Zm-81.57-1.939h-.002a.5.5,0,0,1-.498-.5019q.0043-1.0342.04-2.041a.5006.5006,0,0,1,.5-.4815l.0186,0a.5.5,0,0,1,.4814.5181q-.0366.9909-.04,2.0078A.5.5,0,0,1,514.5389,89.7416Zm78.6553-2.1948a.5.5,0,0,1-.4024-.2031q-.5991-.8115-1.21-1.6109a.5.5,0,0,1,.7949-.6074q.6151.8064,1.22,1.6245a.5.5,0,0,1-.4023.7969Zm-78.4336-2.86a.4318.4318,0,0,1-.044-.002.5.5,0,0,1-.4551-.541q.0879-1.0312.211-2.0313a.5045.5045,0,0,1,.5566-.435.4993.4993,0,0,1,.4356.5571q-.12.9814-.2071,1.9951A.5.5,0,0,1,514.7606,84.6865Zm75.3437-1.1436a.5.5,0,0,1-.39-.1865q-.6313-.7845-1.2764-1.5552a.5.5,0,0,1,.7676-.6416q.65.7779,1.2881,1.57a.5.5,0,0,1-.39.8135Zm-3.2588-3.8638a.4973.4973,0,0,1-.375-.1694q-.6665-.7558-1.3437-1.4946a.5.5,0,1,1,.7363-.6758q.6855.7463,1.3574,1.5093a.5.5,0,0,1-.375.8305Zm-71.42-.0078a.4727.4727,0,0,1-.0908-.0083.5007.5007,0,0,1-.4024-.5815q.1875-1.0211.4122-2.0044a.5.5,0,1,1,.9746.2231q-.22.9616-.4024,1.961A.5.5,0,0,1,515.4256,79.6713Zm67.9854-3.7036a.499.499,0,0,1-.3584-.1514q-.7061-.7251-1.419-1.4326a.5.5,0,0,1,.7031-.7109q.7208.7142,1.4327,1.4463a.5.5,0,0,1-.3584.8486Zm-66.8028-1.2139a.5067.5067,0,0,1-.1455-.0214.5.5,0,0,1-.333-.6241q.3033-.9946.6465-1.9458a.5.5,0,1,1,.9394.34q-.3354.9272-.6289,1.8969A.5.5,0,0,1,516.6082,74.7538Zm63.1865-2.33a.499.499,0,0,1-.3408-.1342q-.7383-.6885-1.4883-1.357a.5.5,0,0,1,.6661-.7461q.7572.6753,1.5039,1.3716a.5.5,0,0,1-.3409.8657Zm-61.4023-2.4013a.5.5,0,0,1-.4541-.7085q.4336-.9471.9141-1.8408a.5.5,0,0,1,.8808.4736q-.4658.8664-.8867,1.7842A.4985.4985,0,0,1,518.3924,70.0229Zm57.6055-.9478a.498.498,0,0,1-.32-.1162q-.7749-.6474-1.5606-1.2724a.5.5,0,1,1,.6231-.7823q.7939.6321,1.5781,1.2871a.5.5,0,0,1-.32.8838Zm-3.9795-3.13a.4973.4973,0,0,1-.2969-.0977q-.813-.6-1.6338-1.1753a.5.5,0,0,1,.5742-.8193q.8306.5823,1.6534,1.19a.5.5,0,0,1-.2969.9024Zm-51.1631-.335a.5.5,0,0,1-.415-.7793c.3867-.5742.7939-1.1353,1.2109-1.6665a.5.5,0,1,1,.7871.6172c-.4023.5122-.7949,1.0532-1.168,1.6079A.5.5,0,0,1,520.8553,65.61Zm46.999-2.541a.5.5,0,0,1-.27-.0791q-.85-.5457-1.707-1.0645a.5.5,0,1,1,.5176-.8554q.8686.5244,1.73,1.0781a.5.5,0,0,1-.2705.9209Zm-43.8086-1.3745a.5.5,0,0,1-.3554-.8516c.4834-.4883.99-.9619,1.5068-1.4077a.5.5,0,1,1,.6523.7578c-.4961.4282-.9834.8833-1.4482,1.353A.497.497,0,0,1,524.0457,61.6943Zm39.4561-1.21a.4984.4984,0,0,1-.2393-.061q-.8936-.4871-1.7793-.9341a.5.5,0,1,1,.4512-.8926q.8979.4542,1.8066.9488a.5.5,0,0,1-.2392.9389Zm-35.5586-2.0014a.5.5,0,0,1-.2764-.917c.5733-.3794,1.168-.7378,1.7686-1.066a.5.5,0,0,1,.4785.878c-.5752.3139-1.1455.6577-1.6943,1.0219A.4986.4986,0,0,1,527.9432,58.4824Zm31.0215-.24a.4956.4956,0,0,1-.2022-.043q-.93-.4108-1.85-.7773a.5.5,0,1,1,.3711-.9287q.9347.3727,1.8828.7915a.5.5,0,0,1-.2021.9575Zm-4.7207-1.8237a.4975.4975,0,0,1-.1563-.0249q-.9652-.3186-1.916-.5855a.5.5,0,0,1,.2715-.9629q.9711.2733,1.957.5982a.5.5,0,0,1-.1562.9751Zm-21.82-.2637a.5.5,0,0,1-.1827-.9653c.6319-.2481,1.2871-.4751,1.95-.6743a.5.5,0,0,1,.2871.958c-.6357.1909-1.2656.4087-1.872.6469A.5.5,0,0,1,532.4237,56.1552ZM549.36,55.1083a.5225.5225,0,0,1-.1016-.01q-.9932-.203-1.9678-.35a.5.5,0,0,1,.1485-.9893q1.0005.1509,2.02.3594a.5.5,0,0,1-.1.99Zm-12.0742-.3134a.5.5,0,0,1-.086-.9922c.668-.1182,1.3545-.2134,2.04-.2832a.5.5,0,0,1,.1015.9951c-.6611.0669-1.3232.1587-1.9677.2724A.4837.4837,0,0,1,537.286,54.7949Zm7.06-.3658-.0312-.0009q-1.0079-.0637-1.9922-.0635a.5.5,0,0,1,0-1q1.0152,0,2.0547.0654a.5.5,0,0,1-.0313.999Z" transform="translate(-275.0788 -33.3162)"/><path class="cls-3" d="M609.493,117.8149a.5.5,0,0,1-.47-.3286l-.3457-.9351a.5.5,0,0,1,.9375-.3486l.3476.9409a.5.5,0,0,1-.2978.6411A.5071.5071,0,0,1,609.493,117.8149Z" transform="translate(-275.0788 -33.3162)"/><path class="cls-8" d="M591.3563,192.4125a.5014.5014,0,0,1-.4639-.3125q-.186-.46-.3779-.9189a.5.5,0,0,1,.9219-.3867q.1947.4643.3837.9306a.5011.5011,0,0,1-.2763.6514A.5081.5081,0,0,1,591.3563,192.4125Z" transform="translate(-275.0788 -33.3162)"/><path class="cls-8" d="M577.5574,238.9643h-.0019c-.667-.0029-1.3477-.0371-2.0225-.1006a.501.501,0,0,1-.4511-.5449.52.52,0,0,1,.5449-.4512c.6455.0615,1.2959.0938,1.9326.0967a.5.5,0,0,1-.002,1Zm2.959-.209a.5.5,0,0,1-.0732-.9941,17.1905,17.1905,0,0,0,1.8828-.39.5.5,0,0,1,.2578.9668,18.2912,18.2912,0,0,1-1.9922.4111A.4985.4985,0,0,1,580.5164,238.7553Zm-7.87-.3486a.4928.4928,0,0,1-.1055-.0117c-.6386-.1377-1.2959-.3047-1.9531-.4942a.5.5,0,1,1,.2774-.9609c.6357.1836,1.27.3447,1.8867.4785a.5.5,0,0,1-.1055.9883Zm12.5947-1.0694a.5.5,0,0,1-.2129-.9521,15.339,15.339,0,0,0,1.6788-.9229.5.5,0,0,1,.5351.8438,16.01,16.01,0,0,1-1.7881.9834A.504.504,0,0,1,585.241,237.3373Zm-17.3252-.3789a.4988.4988,0,0,1-.1826-.0342q-.9155-.36-1.8486-.7851a.5.5,0,0,1,.416-.91q.9067.4146,1.7979.7637a.5.5,0,0,1-.1827.9658Zm21.4043-2.3857a.5.5,0,0,1-.34-.8662,16.7192,16.7192,0,0,0,1.3291-1.3867.4994.4994,0,1,1,.76.6484,17.4763,17.4763,0,0,1-1.4092,1.4707A.4944.4944,0,0,1,589.32,234.5727Zm3.1094-3.833a.5.5,0,0,1-.4267-.7608c.3291-.5381.6416-1.1084.9277-1.6943a.5.5,0,1,1,.8984.4395c-.3008.6132-.6279,1.2109-.9726,1.7763A.5.5,0,0,1,592.43,230.74Zm2.082-4.48a.5006.5006,0,0,1-.4726-.6621c.206-.6006.3955-1.2256.5625-1.86a.5.5,0,0,1,.9668.2559c-.1738.6572-.37,1.3056-.584,1.9287A.499.499,0,0,1,594.5115,226.26Zm1.19-4.7988a.4744.4744,0,0,1-.083-.0069.4991.4991,0,0,1-.4111-.5752q.1567-.9433.2617-1.9336a.5.5,0,1,1,.9941.1055q-.1083,1.02-.2695,1.9922A.5.5,0,0,1,595.701,221.4614Zm.4668-4.9258h-.0166a.5007.5007,0,0,1-.4834-.5166c.0146-.4483.0215-.9043.0215-1.3653l-.0039-.5927a.5.5,0,0,1,.4931-.5069.5264.5264,0,0,1,.5069.4932l.0039.6064q0,.7091-.0215,1.3985A.5009.5009,0,0,1,596.1678,216.5356Zm-.1152-4.95a.5.5,0,0,1-.4981-.4619q-.0732-.9728-.1836-1.9551a.5.5,0,0,1,.9942-.1113q.1113.999.1875,1.99a.5014.5014,0,0,1-.461.5371C596.0789,211.5854,596.0653,211.5854,596.0526,211.5854Zm-.5987-4.917a.5.5,0,0,1-.4922-.417q-.1611-.9639-.3564-1.9326a.5.5,0,0,1,.98-.1973q.1977.9858.3623,1.9639a.4994.4994,0,0,1-.4942.583Zm-1.0146-4.8467a.5011.5011,0,0,1-.4854-.3779q-.2373-.9522-.5068-1.9024a.5.5,0,1,1,.9629-.2714q.2724.9652.5146,1.93a.5015.5015,0,0,1-.3632.6075A.5322.5322,0,0,1,594.4393,201.8217Zm-1.38-4.7578a.4992.4992,0,0,1-.4746-.3438q-.3077-.9315-.6406-1.8613a.5.5,0,0,1,.9414-.3379q.3369.942.6484,1.8867a.4987.4987,0,0,1-.3184.6309A.4833.4833,0,0,1,593.0594,197.0639Z" transform="translate(-275.0788 -33.3162)"/><path class="cls-8" d="M563.4071,234.8334a.4944.4944,0,0,1-.24-.0615q-.4393-.2416-.8818-.4961a.5.5,0,1,1,.498-.8672c.2891.166.5772.3291.8643.4864a.5.5,0,0,1-.24.9384Z" transform="translate(-275.0788 -33.3162)"/><path class="cls-8" d="M590.1727,192.9037l-.0313-.0009a.5.5,0,0,1-.4677-.53l.166-2.667a.5.5,0,0,1,.7968-.37l2.25,1.667a.5.5,0,1,1-.5957.8027L590.78,190.686l-.1084,1.749A.5.5,0,0,1,590.1727,192.9037Z" transform="translate(-275.0788 -33.3162)"/><path class="cls-6" d="M408.7013,104.2884c-.0179-3.283-4.6418-5.9527-10.3279-5.9628s-10.2812,2.6426-10.2634,5.9254c.0162,3.0044,3.8941,5.4885,8.9094,5.8975l.0089,1.6639c-.9507.1453-1.6525.64-1.6491,1.2362l.0306,5.68c.004.7112,1.0057,1.29,2.2377,1.2918l1.6871.0031c1.2319.0023,2.2274-.5726,2.2234-1.2837l-.0307-5.68c-.0033-.5957-.71-1.0935-1.6628-1.2423l-.0089-1.6638C404.8667,109.7628,408.7174,107.2926,408.7013,104.2884Z" transform="translate(-275.0788 -33.3162)"/><path class="cls-4" d="M533.3337,336.6919,354.5674,233.42c-6.921-3.9958-12.5315-14.7158-12.5315-23.9438V46.854c0-9.228,5.6105-13.4695,12.5315-9.4737L533.3337,140.652c6.921,3.9958,12.5316,14.7158,12.5316,23.9438V327.2183C545.8653,336.4463,540.2547,340.6878,533.3337,336.6919Z" transform="translate(-275.0788 -33.3162)"/><path class="cls-11" d="M538.2887,138.0917,359.5223,34.82c-2.7382-1.5809-5.2712-1.8726-7.3329-1.0762-.2622.1014-5.1593,2.6312-5.4058,2.7674l-.0117.0075c2.135-1.0369,4.8434-.8431,7.7955.8614L533.3337,140.6521c6.921,3.9955,12.5317,14.7157,12.5317,23.9437V327.2183c0,5.7589-2.1857,9.5747-5.511,10.6594a2.0787,2.0787,0,0,0,1.0979-.3736c.1584-.0914,5.354-2.9044,5.5052-3.01,2.38-1.6671,3.8627-5.0926,3.8627-9.8357V162.0355C550.82,152.8075,545.21,142.0876,538.2887,138.0917Z" transform="translate(-275.0788 -33.3162)"/><path class="cls-12" d="M536.8854,138.7652,358.119,35.4937c-2.7382-1.581-5.2712-1.8726-7.3328-1.0763-.2623.1014-3.7561,1.9578-4.0026,2.094l-.0117.0075c2.135-1.0369,4.8434-.8431,7.7955.8614L533.3337,140.6521Z" transform="translate(-275.0788 -33.3162)"/><path class="cls-13" d="M533.9351,140.3513,355.1688,37.08c-2.8381-1.6388-5.4469-1.8723-7.5479-.9646a9.2533,9.2533,0,0,1,6.0444,1.4156L532.4317,140.8024c6.9209,3.9958,12.5315,14.7157,12.5315,23.9439V327.3686c0,5.4438-1.9612,9.1325-4.9837,10.4383,3.8664-.6131,6.4871-4.5849,6.4871-10.8893V164.2953C546.4666,155.0671,540.8561,144.3472,533.9351,140.3513Z" transform="translate(-275.0788 -33.3162)"/><path class="cls-14" d="M349.0743,61.3127V209.4762c0,7.2376,3.4449,14.3106,9.0144,17.85L534.9476,329.484c.0661.0381.1667.0957.2932.1678a2.3985,2.3985,0,0,0,3.5864-2.0813v-156.64Z" transform="translate(-275.0788 -33.3162)"/><path class="cls-15" d="M538.574,328.3183c-.1264-.0718-.227-.1294-.2932-.1675L361.4219,225.9931c-5.5693-3.54-9.0144-10.6128-9.0144-17.85V63.2382l-3.3332-1.9255V209.4762c0,7.2376,3.4449,14.3106,9.0144,17.85L534.9476,329.4841c.0661.038.1667.0957.2932.1677a2.3926,2.3926,0,0,0,3.4393-1.29C538.6452,328.3434,538.6087,328.3381,538.574,328.3183Z" transform="translate(-275.0788 -33.3162)"/><path class="cls-16" d="M528.872,153.14a7.5993,7.5993,0,0,0,3.4489,5.9487c1.9047,1.1,3.4488.2193,3.4488-1.9663a7.5994,7.5994,0,0,0-3.4488-5.9487C530.4161,150.0739,528.872,150.9542,528.872,153.14Z" transform="translate(-275.0788 -33.3162)"/><path class="cls-8" d="M519.9765,147.9726a7.5991,7.5991,0,0,0,3.4489,5.9486c1.9047,1.1,3.4488.2194,3.4488-1.9663a7.5992,7.5992,0,0,0-3.4488-5.9486C521.5206,144.9066,519.9765,145.7869,519.9765,147.9726Z" transform="translate(-275.0788 -33.3162)"/><path class="cls-17" d="M511.0811,142.8052a7.5992,7.5992,0,0,0,3.4488,5.9487c1.9047,1.1,3.4488.2194,3.4488-1.9663a7.5994,7.5994,0,0,0-3.4488-5.9487C512.6251,139.7392,511.0811,140.62,511.0811,142.8052Z" transform="translate(-275.0788 -33.3162)"/><path class="cls-2" d="M465.7185,137.8661,452.747,130.377c-1.31-.7566-2.3729-.1508-2.3729,1.3529a5.2281,5.2281,0,0,0,2.3729,4.0927l12.9715,7.4891c1.31.7566,2.3728.1511,2.3728-1.3528A5.2285,5.2285,0,0,0,465.7185,137.8661Zm21.3554,12.33-12.9716-7.4891c-1.31-.7566-2.3728-.1508-2.3728,1.3528a5.2286,5.2286,0,0,0,2.3728,4.0928l12.9716,7.4891c1.31.7566,2.3728.151,2.3728-1.3529A5.2288,5.2288,0,0,0,487.0739,150.1957Zm21.3553,12.33-12.9715-7.4891c-1.31-.7566-2.3728-.1508-2.3728,1.3529a5.228,5.228,0,0,0,2.3728,4.0927l12.9715,7.4891c1.3105.7566,2.3729.1511,2.3729-1.3528A5.2286,5.2286,0,0,0,508.4292,162.5252Zm21.3554,12.33-12.9715-7.4891c-1.31-.7567-2.3728-.1509-2.3728,1.3528a5.228,5.228,0,0,0,2.3728,4.0927L529.7846,180.3c1.3105.7567,2.3729.1511,2.3729-1.3528A5.2285,5.2285,0,0,0,529.7846,174.8548Z" transform="translate(-275.0788 -33.3162)"/><polygon class="cls-18" points="139.171 115.254 139.171 171.078 145.277 167.504 145.277 111.521 139.171 115.254"/><polygon class="cls-11" points="139.193 115.254 139.193 171.078 17.397 101.232 17.397 45.249 139.193 115.254"/><polygon class="cls-2" points="17.397 45.249 139.193 115.254 145.277 111.521 23.441 41.572 17.397 45.249"/><polygon class="cls-10" points="17.397 45.249 139.193 115.254 145.277 111.521 139.177 114.404 17.397 45.249"/><polygon class="cls-6" points="121.356 150.831 121.356 148.461 82.916 126.609 82.916 128.979 121.356 150.831"/><polygon class="cls-6" points="66.269 82.522 66.269 84.892 130.883 121.855 130.883 119.485 66.269 82.522"/><polygon class="cls-6" points="89.02 115.357 66.269 102.222 66.269 104.592 89.02 117.728 89.02 115.357"/><polygon class="cls-6" points="104.416 134.097 104.416 136.467 113.814 141.552 113.814 139.181 104.416 134.097"/><polygon class="cls-6" points="102.957 113.554 66.269 92.372 66.269 94.742 102.957 115.924 102.957 113.554"/><polygon class="cls-6" points="79.707 105.056 66.269 97.297 66.269 99.667 79.707 107.426 79.707 105.056"/><polygon class="cls-6" points="76.291 120.229 102.082 135.12 102.082 132.749 76.291 117.859 76.291 120.229"/><polygon class="cls-6" points="82.041 106.403 82.041 108.773 118.251 129.338 118.251 126.968 82.041 106.403"/><polygon class="cls-6" points="91.353 116.704 91.353 119.075 109.457 129.527 109.457 127.157 91.353 116.704"/><polygon class="cls-6" points="73.957 116.511 66.269 112.073 66.269 114.443 73.957 118.882 73.957 116.511"/><polygon class="cls-6" points="105.291 117.271 130.883 131.706 130.883 129.335 105.291 114.901 105.291 117.271"/><polygon class="cls-6" points="120.585 130.685 130.883 136.631 130.883 134.261 120.585 128.315 120.585 130.685"/><polygon class="cls-6" points="66.269 89.817 130.883 126.781 130.883 124.41 66.269 87.447 66.269 89.817"/><polygon class="cls-6" points="111.791 130.874 130.883 141.556 130.883 139.186 111.791 128.504 111.791 130.874"/><polygon class="cls-6" points="80.582 125.262 66.269 116.998 66.269 119.368 80.582 127.632 80.582 125.262"/><polygon class="cls-6" points="123.689 152.178 130.883 156.332 130.883 153.961 123.689 149.808 123.689 152.178"/><polygon class="cls-6" points="116.147 142.899 130.883 151.406 130.883 149.036 116.147 140.529 116.147 142.899"/><polygon class="cls-6" points="66.269 109.517 130.883 146.481 130.883 144.111 66.269 107.147 66.269 109.517"/><path class="cls-18" d="M327.8477,106.4636,306.6056,94.1759c-3.7138-2.1443-6.7243.1317-6.7243,5.0835v24.5878c0,4.9516,3.01,10.704,6.7243,12.848l21.2421,12.2878c3.7138,2.1443,6.7243-.1317,6.7243-5.0833V119.3119C334.572,114.36,331.5615,108.6079,327.8477,106.4636Z" transform="translate(-275.0788 -33.3162)"/><path class="cls-19" d="M330.4727,146.9828l-21.2422-12.2876c-3.7136-2.144-6.7242-7.8964-6.7242-12.8481V97.26a8.0623,8.0623,0,0,1,.8315-3.8377c-2.0609.342-3.4565,2.468-3.4565,5.8377v24.5876c0,4.9517,3.0106,10.7041,6.7242,12.8481l21.2422,12.2876c2.54,1.4663,4.7488.8638,5.8928-1.2458A4.9472,4.9472,0,0,1,330.4727,146.9828Z" transform="translate(-275.0788 -33.3162)"/><path class="cls-17" d="M311.3477,113.3386l-21.2421-12.2877c-3.7138-2.1443-6.7243.1317-6.7243,5.0835v24.5878c0,4.9516,3.01,10.704,6.7243,12.848l21.2421,12.2878c3.7138,2.1443,6.7243-.1317,6.7243-5.0833V126.1869C318.072,121.2351,315.0615,115.4829,311.3477,113.3386Z" transform="translate(-275.0788 -33.3162)"/><path class="cls-20" d="M314.8129,111.307,293.571,99.0192a4.3927,4.3927,0,0,0-4.2008-.4544l-.0366-.04-3.675,2.1576.0135.0452a4.2734,4.2734,0,0,1,4.4336.3229l21.2421,12.2878c3.7138,2.1442,6.7243,7.8964,6.7243,12.8485v24.5876c0,2.4067-.7151,4.174-1.8725,5.1162l2.0492-1.35a6.0527,6.0527,0,0,0,3.2884-5.7984V124.155C321.5372,119.2034,318.5267,113.451,314.8129,111.307Z" transform="translate(-275.0788 -33.3162)"/><path class="cls-10" d="M311.7253,113.0239l-21.2422-12.2877c-1.8447-1.0651-3.5147-1.0375-4.73-.1352a4.5407,4.5407,0,0,1,3.9118.5755l21.2422,12.2878c3.7137,2.1443,6.7243,7.8964,6.7243,12.8485V150.9c0,2.4922-.7638,4.3045-1.9947,5.2187,1.7008-.6451,2.8125-2.6552,2.8125-5.6591V125.8724C318.45,120.92,315.4391,115.1682,311.7253,113.0239Z" transform="translate(-275.0788 -33.3162)"/><path class="cls-6" d="M289.0158,107.8361v28.1463l23.0364,13.3053V121.1414Zm21.56,38.8942L290.4929,135.13V110.3939l20.0829,11.5993Z" transform="translate(-275.0788 -33.3162)"/><path class="cls-6" d="M306.9918,126.1453c0,1.8441-1.3028,2.5869-2.91,1.6591a6.4121,6.4121,0,0,1-2.91-5.0191c0-1.8441,1.3028-2.5868,2.91-1.659A6.4116,6.4116,0,0,1,306.9918,126.1453Z" transform="translate(-275.0788 -33.3162)"/><polygon class="cls-6" points="14.709 95.188 20.707 87.437 26.797 102.847 31.226 99.248 36.117 112.536 36.025 113.881 14.801 102.531 14.709 95.188"/><path class="cls-16" d="M570.839,129.5627c0,3.8248-1.32,6.5337-3.4655,7.8452-.0645.0394-3.6657,2.2733-3.7316,2.31-2.2324,1.2484-.8048-1.5843-4.1951-3.5417-6.8235-3.94-12.355-13.48-12.355-21.31,0-3.8718-3.58-3.9031-1.387-5.1959.0611-.036,4.0921-2.3374,4.1545-2.3713,2.2264-1.2057,5.2694-.9836,8.6247.9536C565.3074,112.1918,570.839,121.7328,570.839,129.5627Z" transform="translate(-275.0788 -33.3162)"/><path class="cls-6" d="M555.0344,110.3651c-3.2709-1.8884-6.2427-2.1431-8.4529-1.0379,2.06-.5762,4.6166-.1459,7.3858,1.4529,6.8235,3.94,12.355,13.4806,12.355,21.31,0,4.0765-1.5016,6.8816-3.9021,8.082,3.0163-.8436,4.9693-3.8448,4.9693-8.497C567.39,123.8457,561.8579,114.3047,555.0344,110.3651Z" transform="translate(-275.0788 -33.3162)"/><ellipse class="cls-21" cx="554.4416" cy="124.8388" rx="10.0561" ry="17.4183" transform="translate(-262.2922 263.5694) rotate(-30.3107)"/><path class="cls-22" d="M552.2317,119.7609c0,1.1-.7773,1.5434-1.7361.99a3.8256,3.8256,0,0,1-1.7361-2.9946c0-1.1.7773-1.5434,1.7361-.99A3.8253,3.8253,0,0,1,552.2317,119.7609Z" transform="translate(-275.0788 -33.3162)"/><path class="cls-22" d="M559.2533,123.8148c0,1.1-.7773,1.5434-1.7361.99a3.8253,3.8253,0,0,1-1.7361-2.9945c0-1.1.7773-1.5434,1.7361-.99A3.8253,3.8253,0,0,1,559.2533,123.8148Z" transform="translate(-275.0788 -33.3162)"/><path class="cls-22" d="M547.4457,124.2921l1.62.274a11.8,11.8,0,0,0,4.9711,6.8935c2.1611,1.2477,4.1381.8363,4.92-1.0236l1.6028,1.6388c-1.0367,2.4657-3.6578,3.0112-6.5225,1.3573A15.6462,15.6462,0,0,1,547.4457,124.2921Z" transform="translate(-275.0788 -33.3162)"/><path class="cls-23" d="M551.0028,120.3957a3.8257,3.8257,0,0,1-1.7362-2.9945,1.4523,1.4523,0,0,1,.2336-.8459c-.4468.1024-.7407.5264-.7407,1.2009a3.8257,3.8257,0,0,0,1.7361,2.9945c.6464.3733,1.2037.2849,1.5025-.1438A1.3894,1.3894,0,0,1,551.0028,120.3957Z" transform="translate(-275.0788 -33.3162)"/><path class="cls-23" d="M558.0244,124.45a3.8258,3.8258,0,0,1-1.7362-2.9947,1.4521,1.4521,0,0,1,.2336-.8457c-.4468.1024-.7407.5263-.7407,1.2007a3.826,3.826,0,0,0,1.7361,2.9947c.6464.373,1.2036.2847,1.5025-.144A1.3907,1.3907,0,0,1,558.0244,124.45Z" transform="translate(-275.0788 -33.3162)"/><path class="cls-23" d="M559.1551,130.64l-.199-.2034a2.96,2.96,0,0,1-.7413,1.0616A2.6061,2.6061,0,0,0,559.1551,130.64Z" transform="translate(-275.0788 -33.3162)"/><path class="cls-23" d="M554.5436,133.0769a15.5819,15.5819,0,0,1-6.4559-8.6762l-.6419-.1085a15.6448,15.6448,0,0,0,6.5906,9.14c2.1567,1.2454,4.1746,1.243,5.483.1141C558.2256,134.2973,556.44,134.1717,554.5436,133.0769Z" transform="translate(-275.0788 -33.3162)"/><polygon class="cls-18" points="289.689 219.05 289.689 287.224 295.795 283.65 295.795 215.317 289.689 219.05"/><polygon class="cls-11" points="289.712 219.05 289.712 287.224 156.416 210.786 156.416 142.453 289.712 219.05"/><polygon class="cls-2" points="156.416 142.453 289.712 219.05 295.795 215.317 162.46 138.776 156.416 142.453"/><polygon class="cls-10" points="156.416 142.453 289.712 219.05 295.795 215.317 289.695 218.2 156.416 142.453"/><ellipse class="cls-18" cx="535.7808" cy="270.1419" rx="17.0251" ry="29.4894" transform="translate(-338.176 274.0129) rotate(-30.3106)"/><path class="cls-19" d="M537.7807,292.3941c-11.5522-6.67-20.9171-22.8227-20.9171-36.0786,0-4.946,1.3048-8.7881,3.5392-11.3174-3.4373,2.2925-5.5392,6.7905-5.5392,13.0674,0,13.2559,9.3649,29.4089,20.9171,36.0786,7.2421,4.1812,13.6236,3.6414,17.3779-.6084C549.3366,296.0845,543.863,295.9058,537.7807,292.3941Z" transform="translate(-275.0788 -33.3162)"/><path class="cls-18" d="M477.0728,213.207l-4.4974-2.5966v50.6841l4.4974,2.5966Zm6.4773-2.5414-4.4975-2.5966v56.9086l4.4975,2.5966Zm6.6676,11.4493-4.4973-2.5966v49.2695l4.4973,2.5966Zm-30.9778,3.57V253.452l4.4974,2.5965V228.2811Zm11.1652-7.7186-4.4975-2.5966v41.8928l4.4975,2.5966Zm26.3534,18.22-4.4974-2.5966v39.0089l4.4974,2.5965Zm6.4137,16.085-4.4974-2.5966v26.6706l4.4974,2.5965Zm-46.1043-31.3992-4.4974-2.5966v31.1563l4.4974,2.5966Zm-17.8329,1.84v18.8777l4.4974,2.5966V225.3075ZM450.4,215.3067l-4.4974-2.5966v32.6886l4.4974,2.5966Z" transform="translate(-275.0788 -33.3162)"/><path class="cls-3" d="M477.0728,233.1019l-4.4974-2.5966v30.7892l4.4974,2.5966Zm6.4773-13.9983-4.4975-2.5965v48.47l4.4975,2.5966Zm6.6676,12.008L485.72,228.515v40.2728l4.4973,2.5966ZM459.24,232.4309V253.452l4.4974,2.5965v-21.021Zm11.1652-.8241-4.4975-2.5966v28.2519l4.4975,2.5966ZM457.0679,223.42l-4.4974-2.5966v28.6075l4.4974,2.5966ZM439.235,236.1214v5.4672l4.4974,2.5966V238.718Zm11.1652.011-4.4974-2.5966v11.8629l4.4974,2.5966Zm46.3583,7.3135-4.4974-2.5966v31.7486l4.4974,2.5965Zm6.4137,12.781-4.4974-2.5966v22.7143l4.4974,2.5965Z" transform="translate(-275.0788 -33.3162)"/><polygon class="cls-6" points="215.139 198.357 210.642 195.761 210.642 195.199 215.139 197.795 215.139 198.357"/><polygon class="cls-6" points="208.471 186.349 203.974 183.753 203.974 183.191 208.471 185.787 208.471 186.349"/><polygon class="cls-6" points="228.093 223.473 223.596 220.876 223.596 220.314 228.093 222.911 228.093 223.473"/><polygon class="cls-6" points="201.994 200.348 197.497 197.751 197.497 197.189 201.994 199.786 201.994 200.348"/><polygon class="cls-6" points="221.68 210.692 217.182 208.095 217.182 207.533 221.68 210.13 221.68 210.692"/><polygon class="cls-6" points="175.321 203.378 170.824 200.781 170.824 200.22 175.321 202.816 175.321 203.378"/><polygon class="cls-6" points="181.989 190.666 177.492 188.069 177.492 187.507 181.989 190.104 181.989 190.666"/><polygon class="cls-6" points="168.654 205.402 168.654 205.964 164.156 203.367 164.156 202.805 168.654 205.402"/><polygon class="cls-6" points="195.326 198.852 190.829 196.256 190.829 195.694 195.326 198.291 195.326 198.852"/><polygon class="cls-6" points="188.658 202.273 184.161 199.677 184.161 199.115 188.658 201.711 188.658 202.273"/><path class="cls-16" d="M515.2037,261.2792c.2742-10.02,7.5571-14.0031,16.4921-8.8444,4.6,2.6556,8.7622,7.2317,11.76,12.4556l3.2962-.8289c-3.7549-6.8115-9.1135-12.8186-15.0564-16.25-11.2441-6.4917-20.4033-1.36-20.5406,11.4267l2.6371,2.3948Z" transform="translate(-275.0788 -33.3162)"/><path class="cls-16" d="M539.9772,292.5445a14.1925,14.1925,0,0,1-8.2814-2.201c-8.4633-4.8862-15.4511-16.2656-16.3993-26.2378l-4.0331-2.0331c.0063.0731-1.348.3475-1.3411.4206,1.1663,12.4128,11.2364,26.39,21.7735,32.4733,3.8265,2.2093,6.4165,3.371,9.4873,3.0446.1292-.0137,1.2509-.3331,1.3782-.351Z" transform="translate(-275.0788 -33.3162)"/><path class="cls-16" d="M545.0168,267.9189a31.55,31.55,0,0,1,3.1971,13.007c0,5.9889-2.44,9.92-6.2313,11.2071l2.5538,5.0561c4.6937-1.6147,7.7063-6.5086,7.7063-13.9372a39.22,39.22,0,0,0-3.95-16.1569Z" transform="translate(-275.0788 -33.3162)"/><path class="cls-16" d="M537.3671,276.2254a14.0719,14.0719,0,0,1-2.8967-3.4682c-.4788-.8019-.462-1.6715.0041-1.9428a3.7033,3.7033,0,0,0,1.4784-1.6494c.5078.14,1.1374-.0465,1.1374-.7427a2.7521,2.7521,0,0,0-.7333-1.8745,9.2145,9.2145,0,0,0-4.6581-8.18,4.3449,4.3449,0,0,0-2.8309-.7982c-.16.03-1.546.3956-1.6813.4629-.9474.471-.0752,1.4889-.1459,3.1371-.4193-.0932-.7332.3175-.7332,1.0278a3.3606,3.3606,0,0,0,1.1374,2.0561,16.5053,16.5053,0,0,0,1.4783,3.3564c.4661.81.483,1.6986.0041,1.9476a3.8172,3.8172,0,0,1-2.8966.1234,2.1713,2.1713,0,0,0-1.21-.0487c-.1019.0281-1.3469.3512-1.4394.3973-.65.3237.0914.7975.0914,1.9006v3.1337a2.1118,2.1118,0,0,0,.9584,1.6531l13.43,8.8892c.2326.1343,1.5513-.3346,1.7173-.3969a.6286.6286,0,0,0,.3466-.6465v-3.1337A7.4617,7.4617,0,0,0,537.3671,276.2254Z" transform="translate(-275.0788 -33.3162)"/><path class="cls-6" d="M514.3007,261.5372c.2742-10.02,7.5571-14.0031,16.4921-8.8444,4.6,2.6556,8.7622,7.2317,11.76,12.4556l3.2962-.8289c-3.7549-6.8115-9.1135-12.8187-15.0564-16.25-11.2441-6.4917-20.4033-1.36-20.5406,11.4267Z" transform="translate(-275.0788 -33.3162)"/><path class="cls-6" d="M539.0742,292.8025a14.1925,14.1925,0,0,1-8.2814-2.201c-8.4633-4.8862-15.4511-16.2656-16.3993-26.2378l-4.0331-2.0331c1.0835,12.4646,9.8332,26.7745,20.4324,32.8939,3.9875,2.3022,7.711,3.1373,10.8655,2.6936Z" transform="translate(-275.0788 -33.3162)"/><path class="cls-6" d="M544.1138,268.1769a31.55,31.55,0,0,1,3.1971,13.007c0,5.9889-2.44,9.92-6.2313,11.2071l2.5538,5.0561c4.6937-1.6147,7.7063-6.5086,7.7063-13.9372a39.22,39.22,0,0,0-3.95-16.1569Z" transform="translate(-275.0788 -33.3162)"/><path class="cls-6" d="M536.4641,276.4834a14.0719,14.0719,0,0,1-2.8967-3.4682c-.4788-.8019-.462-1.6715.0041-1.9428a3.7033,3.7033,0,0,0,1.4784-1.6494c.5078.14,1.1374-.0465,1.1374-.7427a2.7525,2.7525,0,0,0-.7332-1.8745,9.2148,9.2148,0,0,0-4.6582-8.18c-3.4958-2.0183-4.5339-.0941-4.6581,2.8018-.4193-.0932-.7332.3175-.7332,1.0278a3.3606,3.3606,0,0,0,1.1374,2.0561,16.5053,16.5053,0,0,0,1.4783,3.3564c.4661.81.483,1.6986.0041,1.9476a3.8172,3.8172,0,0,1-2.8966.1234c-1.4674-.4438-2.5582.4415-2.5582,2.2492v3.1337a2.1118,2.1118,0,0,0,.9584,1.6531l14.5359,8.3923c.5293.3056.9584.0609.9584-.5465v-3.1337A7.4617,7.4617,0,0,0,536.4641,276.4834Z" transform="translate(-275.0788 -33.3162)"/><path class="cls-24" d="M513.7847,261.6661c.2742-10.0195,7.5571-14.003,16.4921-8.8443,4.6,2.6556,8.7622,7.2317,11.76,12.4556l3.2962-.8289c-3.7549-6.8115-9.1135-12.8187-15.0564-16.25-11.2441-6.4917-20.4033-1.36-20.5406,11.4267Z" transform="translate(-275.0788 -33.3162)"/><path class="cls-24" d="M538.5582,292.9315a14.1925,14.1925,0,0,1-8.2814-2.201c-8.4633-4.8862-15.4511-16.2656-16.3993-26.2378l-4.0331-2.0331c1.0835,12.4646,9.8332,26.7745,20.4324,32.8939,3.9875,2.3022,7.711,3.1373,10.8655,2.6936Z" transform="translate(-275.0788 -33.3162)"/><path class="cls-24" d="M543.5978,268.3059a31.55,31.55,0,0,1,3.1971,13.007c0,5.9889-2.44,9.92-6.2313,11.2071l2.5538,5.0561c4.6937-1.6147,7.7063-6.5086,7.7063-13.9372a39.2212,39.2212,0,0,0-3.95-16.1569Z" transform="translate(-275.0788 -33.3162)"/><path class="cls-24" d="M535.9481,276.6124a14.0719,14.0719,0,0,1-2.8967-3.4682c-.4788-.8019-.462-1.6715.0041-1.9428a3.7033,3.7033,0,0,0,1.4784-1.6494c.5078.14,1.1374-.0465,1.1374-.7427a2.7525,2.7525,0,0,0-.7332-1.8745,9.2148,9.2148,0,0,0-4.6582-8.18c-3.4958-2.0183-4.5339-.0941-4.6581,2.8018-.4193-.0932-.7332.3175-.7332,1.0278a3.3606,3.3606,0,0,0,1.1374,2.0561,16.5053,16.5053,0,0,0,1.4783,3.3564c.4661.81.483,1.6986.0041,1.9476a3.8172,3.8172,0,0,1-2.8966.1234c-1.4674-.4438-2.5582.4415-2.5582,2.2492V275.45a2.1118,2.1118,0,0,0,.9584,1.6531l14.5359,8.3923c.5293.3056.9584.0609.9584-.5465v-3.1337A7.4617,7.4617,0,0,0,535.9481,276.6124Z" transform="translate(-275.0788 -33.3162)"/><polygon class="cls-20" points="157.155 201.921 157.155 230.468 161.943 227.837 161.943 199.131 157.155 201.921"/><polygon class="cls-17" points="157.178 201.921 157.178 230.468 51.536 169.477 51.536 140.771 157.178 201.921"/><polygon class="cls-25" points="51.536 140.771 157.178 201.921 161.943 199.131 56.261 138.037 51.536 140.771"/><polygon class="cls-10" points="51.536 140.771 157.178 201.921 161.943 199.131 157.277 201.171 51.536 140.771"/><polygon class="cls-6" points="151.807 221.823 56.748 166.344 56.748 149.523 151.807 205.003 151.807 221.823"/><path class="cls-19" d="M335.8105,187.5936l1.9225,1.11.8887,9.1819.0362.021.9432-8.1243,2.1764,1.2565.9431,9.2133.0363.021.8887-8.1557,1.723.9949-1.2876,11.2967-2.4849-1.4346-.9068-7.8186-.0363-.021-.9069,6.7715-2.648-1.5288Z" transform="translate(-275.0788 -33.3162)"/><path class="cls-19" d="M347.19,194.2089l1.9225,1.11.8887,9.1819.0362.021.9432-8.1243,2.1765,1.2565.943,9.2133.0363.0209.8887-8.1556,1.723.9947-1.2876,11.2968-2.4848-1.4345-.9069-7.8187-.0363-.0209-.9068,6.7715-2.6481-1.5288Z" transform="translate(-275.0788 -33.3162)"/><path class="cls-19" d="M358.6613,200.7329l1.9225,1.11.8887,9.1817.0362.021.9432-8.1243,2.1764,1.2566.943,9.2133.0364.021.8887-8.1558,1.723.9949-1.2876,11.2967-2.4849-1.4345-.9068-7.8186-.0363-.021-.9069,6.7716-2.648-1.529Z" transform="translate(-275.0788 -33.3162)"/><polygon class="cls-16" points="99.498 54.999 99.498 74.907 102.501 73.253 102.501 53.191 99.498 54.999"/><polygon class="cls-21" points="99.521 54.999 99.521 74.907 81.799 64.668 81.799 44.606 99.521 54.999"/><polygon class="cls-24" points="81.799 44.606 99.521 54.999 102.501 53.191 84.741 42.853 81.799 44.606"/><polygon class="cls-6" points="81.799 44.606 99.521 54.999 102.501 53.191 99.37 54.04 81.799 44.606"/><polygon class="cls-9" points="115.081 48.359 115.081 80.596 119.943 77.918 119.943 45.431 115.081 48.359"/><polygon class="cls-26" points="86.42 31.53 115.117 48.359 119.943 45.431 91.184 28.69 86.42 31.53"/><polygon class="cls-10" points="86.42 31.53 115.117 48.359 119.943 45.431 115.247 47.667 86.42 31.53"/><polygon class="cls-8" points="86.42 31.53 86.42 44.9 101.608 53.807 101.608 72.791 115.117 80.596 115.117 48.359 86.42 31.53"/><polygon class="cls-20" points="176.42 126.201 176.42 148.458 179.777 146.608 179.777 124.179 176.42 126.201"/><polygon class="cls-17" points="176.445 126.201 176.445 148.458 156.632 137.011 156.632 114.582 176.445 126.201"/><polygon class="cls-25" points="156.632 114.582 176.445 126.201 179.777 124.179 159.921 112.621 156.632 114.582"/><polygon class="cls-10" points="156.632 114.582 176.445 126.201 179.777 124.179 176.277 125.129 156.632 114.582"/><polygon class="cls-20" points="202.42 141.201 202.42 163.458 205.777 161.608 205.777 139.179 202.42 141.201"/><polygon class="cls-17" points="202.445 141.201 202.445 163.458 182.632 152.011 182.632 129.582 202.445 141.201"/><polygon class="cls-25" points="182.632 129.582 202.445 141.201 205.777 139.179 185.921 127.621 182.632 129.582"/><polygon class="cls-10" points="182.632 129.582 202.445 141.201 205.777 139.179 202.277 140.129 182.632 129.582"/><polygon class="cls-20" points="228.253 156.034 228.253 178.291 231.61 176.442 231.61 154.013 228.253 156.034"/><polygon class="cls-17" points="228.278 156.034 228.278 178.291 208.466 166.844 208.466 144.415 228.278 156.034"/><polygon class="cls-25" points="208.466 144.415 228.278 156.034 231.61 154.013 211.754 142.455 208.466 144.415"/><polygon class="cls-10" points="208.466 144.415 228.278 156.034 231.61 154.013 228.11 154.962 208.466 144.415"/><polygon class="cls-20" points="253.753 170.534 253.753 192.791 257.11 190.942 257.11 168.513 253.753 170.534"/><polygon class="cls-17" points="253.778 170.534 253.778 192.791 233.966 181.344 233.966 158.915 253.778 170.534"/><polygon class="cls-25" points="233.966 158.915 253.778 170.534 257.11 168.513 237.254 156.955 233.966 158.915"/><polygon class="cls-10" points="233.966 158.915 253.778 170.534 257.11 168.513 253.61 169.462 233.966 158.915"/><path class="cls-6" d="M497.4005,198.7767a8.9041,8.9041,0,0,1-1.8329-2.1947c-.3031-.5075-.2924-1.0578.0025-1.2294a2.3435,2.3435,0,0,0,.9355-1.0437c.3214.0887.72-.0295.72-.47a1.7419,1.7419,0,0,0-.464-1.1862,5.8312,5.8312,0,0,0-2.9476-5.1766c-2.2122-1.2772-2.8691-.06-2.9477,1.7729-.2653-.0589-.464.201-.464.65a2.1264,2.1264,0,0,0,.72,1.3011,10.4432,10.4432,0,0,0,.9355,2.124c.2949.5122.3056,1.0748.0025,1.2324a2.4156,2.4156,0,0,1-1.8329.0781c-.9286-.2809-1.6188.2794-1.6188,1.4232v1.9831a1.3362,1.3362,0,0,0,.6064,1.046l9.1983,5.3106c.3349.1934.6065.0386.6065-.3457v-1.983A4.7214,4.7214,0,0,0,497.4005,198.7767Z" transform="translate(-275.0788 -33.3162)"/><path class="cls-6" d="M512.624,213.0936l3.2111,1.8539V209.19l-3.2111-1.8539Zm5.0842,2.9353,3.2111,1.854V207.3278l-3.2111-1.854Zm5.0842-12.4174v15.3528l3.2111,1.8539V205.4654Z" transform="translate(-275.0788 -33.3162)"/><path class="cls-6" d="M472.7852,183.0852a7.3972,7.3972,0,0,0-.0641-.91l1.5169-.192a13.722,13.722,0,0,0-.6874-2.2965l-1.7286-.5228a12.1553,12.1553,0,0,0-1.0759-1.8557l.4142-1.7444a13.8671,13.8671,0,0,0-1.6555-1.7447l-.93,1.2036a7.5369,7.5369,0,0,0-.76-.5128,5.86,5.86,0,0,0-.7606-.3654l-.93-2.278a4.6107,4.6107,0,0,0-1.6556-.1669l.4142,2.2226a2.374,2.374,0,0,0-1.0758.6135l-1.7286-1.4733a4.5146,4.5146,0,0,0-.6875,1.5027l1.5169,1.9436a5.741,5.741,0,0,0-.0641.8357,7.3969,7.3969,0,0,0,.0641.91l-1.5169.1919a13.718,13.718,0,0,0,.6875,2.2967l1.7285.5227a12.154,12.154,0,0,0,1.0759,1.8557l-.4142,1.7444a13.8469,13.8469,0,0,0,1.6556,1.7447l.93-1.2035a7.537,7.537,0,0,0,.7606.5127,5.8525,5.8525,0,0,0,.76.3654l.93,2.278a4.6055,4.6055,0,0,0,1.6555.1669l-.4142-2.2227a2.374,2.374,0,0,0,1.0759-.6133l1.7286,1.4732a4.5164,4.5164,0,0,0,.6874-1.5027l-1.5169-1.9436A5.74,5.74,0,0,0,472.7852,183.0852Zm-4.9714-.5791a4.4,4.4,0,0,1-1.9968-3.444c0-1.2655.894-1.7751,1.9968-1.1384a4.4,4.4,0,0,1,1.9967,3.444C469.8105,182.6331,468.9166,183.1428,467.8138,182.5061Z" transform="translate(-275.0788 -33.3162)"/><path class="cls-6" d="M435.3833,156.75l6.3773,9.9649,6.377-2.6012.0055.0084a2.4371,2.4371,0,0,0-.7571-.7372l-11.2511-6.4958a.96.96,0,0,0-.7571-.137Z" transform="translate(-275.0788 -33.3162)"/><path class="cls-6" d="M448.1573,164.1438l-6.3967,3.647L439.95,164.667l-4.5662,1.8626-.02-.03,4.2452-2.42-4.2451-7.3221a.8012.8012,0,0,0-.4788.8445v7.6208a2.7544,2.7544,0,0,0,1.25,2.1563l11.2511,6.4958c.69.3986,1.25.08,1.25-.7128v-7.6208A2.6246,2.6246,0,0,0,448.1573,164.1438Zm-.02,9.75-4.5662-7.1349.3408-.1942,4.2451,7.322Z" transform="translate(-275.0788 -33.3162)"/><polygon class="cls-18" points="76.644 191.275 76.644 219.823 81.151 217.258 81.151 188.552 76.644 191.275"/><polygon class="cls-11" points="76.667 191.275 76.667 219.823 0 175.573 0 146.866 76.667 191.275"/><polygon class="cls-2" points="0 146.866 76.667 191.275 81.151 188.552 4.445 144.199 0 146.866"/><polygon class="cls-10" points="0 146.866 76.667 191.275 81.151 188.552 76.485 190.425 0 146.866"/><path class="cls-6" d="M304.7043,202.0045l-14.0156-8.092c-.86-.4965-1.5572-.0988-1.5572.888v9.4934a3.4309,3.4309,0,0,0,1.5572,2.6859l8.76,5.0576,4.38,7.5546v-5.0259l.8759.5057c.86.4966,1.5573.0991,1.5573-.8878v-9.4934A3.4316,3.4316,0,0,0,304.7043,202.0045Zm-9.88,1.7769c-.4561.26-1.1956-.1669-1.6517-.9536s-.4561-1.6353,0-1.8953,1.1956.1669,1.6517.9536S295.28,203.5214,294.8239,203.7814Zm3.7959,2.1916c-.4561.26-1.1956-.167-1.6517-.9536s-.4561-1.6353,0-1.8954,1.1956.1669,1.6517.9536S299.0759,205.7129,298.62,205.973Zm3.7959,2.1915c-.4561.26-1.1956-.1669-1.6517-.9536s-.4561-1.6353,0-1.8953,1.1956.1669,1.6517.9536S302.8718,207.9045,302.4157,208.1645Zm-14.4522-4.5452v-7.7061l-5.3533-3.0907c-.86-.4965-1.5571-.099-1.5571.8879v9.4935A3.431,3.431,0,0,0,282.61,205.89l.876.5058v5.0259l4.38-2.4972,8.76,5.0575c.86.4966,1.5573.0991,1.5573-.8878v-.4469l-7.4943-4.3269A6.0143,6.0143,0,0,1,287.9635,203.6193Z" transform="translate(-275.0788 -33.3162)"/><polygon class="cls-6" points="34.374 173.463 34.374 175.834 71 196.981 71 194.61 34.374 173.463"/><polygon class="cls-6" points="59.417 197.786 34.374 183.314 34.374 185.684 59.417 200.156 59.417 197.786"/><polygon class="cls-6" points="34.374 180.759 71 201.906 71 199.536 34.374 178.388 34.374 180.759"/><path class="cls-27" d="M402.812,284.2693l-23.8086-13.367c2.0559-1.5077,3.2623-3.3014,3.2623-5.2315,0-5.3256-9.0891-9.6432-20.3015-9.6432s-20.3014,4.3176-20.3014,9.6432,9.089,9.6432,20.3014,9.6432a40.8832,40.8832,0,0,0,6.66-.5422L394.2622,289.17a7.1776,7.1776,0,0,0,6.4582-.2677C402.8373,287.827,405.3526,285.7686,402.812,284.2693Z" transform="translate(-275.0788 -33.3162)"/><path class="cls-15" d="M402.7305,281.64a5.4493,5.4493,0,1,1-7.382-2.2122A5.4492,5.4492,0,0,1,402.7305,281.64Z" transform="translate(-275.0788 -33.3162)"/><path class="cls-19" d="M385.487,247.3746,373.69,253.7315l17.5981,32.4649.002-.0011c.0082.016.0149.0326.0235.0485,1.0222,1.8971,4.4918,2.0119,7.75.2565s5.07-4.7163,4.0478-6.6134c-.0086-.0159-.0187-.0306-.0276-.0463l.002-.0011Z" transform="translate(-275.0788 -33.3162)"/><path class="cls-18" d="M385.5,247.3983c1.0222,1.8971-.79,4.858-4.0478,6.6134s-6.7274,1.6405-7.75-.2565.79-4.8581,4.0478-6.6135S384.4776,245.5012,385.5,247.3983Z" transform="translate(-275.0788 -33.3162)"/><path class="cls-15" d="M377.762,238.7616l-7.0172,3.7811,4.99,9.26.0012-.0006.0139.0288c.6081,1.1284,2.6718,1.1967,4.61.1526s3.0157-2.8053,2.4076-3.9337l-.0164-.0275.0012-.0007Z" transform="translate(-275.0788 -33.3162)"/><path class="cls-2" d="M357.9515,164.3285c-8.7364-5.044-16.6594-5.6221-22.4566-2.4827-.1626.088-8.4823,4.73-8.7445,5.132,5.8994-4.45,14.6329-4.3824,24.38,1.2448,17.7668,10.2576,32.17,35.1,32.17,55.4874,0,10.4025-3.7512,17.6325-9.7843,20.859a7.2728,7.2728,0,0,0,1.57-.69c.1716-.096,5.8447-3.5334,6.0124-3.636,5.5867-3.4147,9.0234-10.4682,9.0234-20.427C390.1211,199.4287,375.7183,174.5862,357.9515,164.3285Z" transform="translate(-275.0788 -33.3162)"/><path class="cls-4" d="M351.13,168.2226c-17.7667-10.2577-32.17-2.0459-32.17,18.3412s14.4028,45.23,32.17,55.4876,32.17,2.0458,32.17-18.3414S368.8967,178.48,351.13,168.2226Zm-.4827,68.96c-15.0767-8.7045-27.2989-29.7859-27.2989-47.0864s12.2222-24.2688,27.2989-15.5643,27.299,29.786,27.299,47.0864S365.724,245.8876,350.6472,237.183Z" transform="translate(-275.0788 -33.3162)"/><path class="cls-2" d="M356.2977,234.0253c-15.0768-8.7045-27.2989-29.7859-27.2989-47.0864,0-7.0573,2.035-12.3934,5.4668-15.65-6.7416,1.8116-11.1173,8.4585-11.1173,18.8073,0,17.3005,12.2222,38.3819,27.2989,47.0864,8.9266,5.1538,16.8511,4.8115,21.8321.0854C367.9507,238.4854,362.3559,237.5231,356.2977,234.0253Z" transform="translate(-275.0788 -33.3162)"/><path class="cls-13" d="M352.6736,167.4507c-8.5167-4.917-16.2548-5.58-22.01-2.7023,5.3644-1.5,13.2554-.6888,20.4658,3.4742,17.7668,10.2576,32.17,35.1,32.17,55.4874,0,10.6144-5.1447,18.227-11.3951,21.3525,7.8538-2.1965,12.9387-10.0109,12.9387-22.1243C384.8431,202.551,370.44,177.7084,352.6736,167.4507Z" transform="translate(-275.0788 -33.3162)"/></g></g></svg>