<svg height="600" viewBox="0 0 800 600" width="800" xmlns="http://www.w3.org/2000/svg"><g fill="none" fill-rule="evenodd"><path d="m0 0h400v600h-400z" fill="#e5bbb1"/><path d="m400 0h400v600h-400z" fill="#9ba5b5"/><g fill-rule="nonzero" transform="translate(263 67)"><path d="m215.965-29 59 29.5-59 29.5-.001-24h-215.429v-11h215.429z" fill="#e5bbb1"/><path d="m59.333 39v24h214.834v11h-214.834v24l-59-29.5z" fill="#9ba5b5"/></g><g fill="#fff"><path d="m90.044 245v-17.124h17.792v17.124h8.744v-41.455h-8.744v17.105h-17.792v-17.105h-8.765v41.455zm62.02 0v-7.226h-19.25v-9.898h17.732v-7.226h-17.732v-9.878h19.169v-7.227h-27.933v41.455zm33.682 0v-7.226h-17.772v-34.229h-8.765v41.455zm32.601 0v-7.226h-17.772v-34.229h-8.765v41.455zm23.128.567c3.657 0 6.953-.834 9.888-2.5 2.935-1.667 5.256-4.085 6.963-7.257 1.707-3.17 2.56-7.017 2.56-11.537s-.853-8.367-2.56-11.538-4.028-5.59-6.963-7.256c-2.935-1.667-6.23-2.5-9.888-2.5-3.684 0-6.99.833-9.918 2.5-2.928 1.666-5.243 4.085-6.943 7.256s-2.55 7.017-2.55 11.538c0 4.507.85 8.346 2.55 11.517s4.015 5.594 6.943 7.267 6.234 2.51 9.918 2.51zm0-7.753c-2.119 0-3.967-.52-5.546-1.558-1.579-1.04-2.804-2.564-3.674-4.575-.87-2.01-1.305-4.48-1.305-7.408 0-2.929.435-5.398 1.305-7.409.87-2.01 2.095-3.535 3.674-4.574 1.579-1.04 3.427-1.559 5.546-1.559s3.967.52 5.546 1.559c1.58 1.039 2.804 2.564 3.674 4.574.87 2.011 1.306 4.48 1.306 7.409 0 2.928-.436 5.397-1.306 7.408-.87 2.01-2.095 3.536-3.674 4.575s-3.427 1.558-5.546 1.558z" fill-rule="nonzero"/><path d="m572.285 245v-17.124h17.793v17.124h8.744v-41.455h-8.744v17.105h-17.793v-17.105h-8.764v41.455zm52.69.567c3.656 0 6.952-.834 9.887-2.5 2.935-1.667 5.256-4.085 6.963-7.257 1.707-3.17 2.56-7.017 2.56-11.537s-.853-8.367-2.56-11.538-4.028-5.59-6.963-7.256c-2.935-1.667-6.23-2.5-9.888-2.5-3.684 0-6.99.833-9.918 2.5-2.928 1.666-5.243 4.085-6.943 7.256s-2.55 7.017-2.55 11.538c0 4.507.85 8.346 2.55 11.517s4.015 5.594 6.943 7.267 6.234 2.51 9.918 2.51zm0-7.753c-2.12 0-3.968-.52-5.547-1.558-1.579-1.04-2.803-2.564-3.674-4.575-.87-2.01-1.305-4.48-1.305-7.408 0-2.929.435-5.398 1.305-7.409.87-2.01 2.095-3.535 3.674-4.574 1.579-1.04 3.428-1.559 5.546-1.559 2.119 0 3.967.52 5.546 1.559 1.58 1.039 2.804 2.564 3.674 4.574.87 2.011 1.306 4.48 1.306 7.409 0 2.928-.435 5.397-1.306 7.408-.87 2.01-2.095 3.536-3.674 4.575s-3.427 1.558-5.546 1.558zm52.663 7.186v-7.226h-17.772v-34.229h-8.765v41.455zm14.242 0 3.074-9.452h14.968l3.07 9.452h9.392l-14.29-41.455h-11.296l-14.308 41.455h9.392zm15.82-16.294h-10.52l5.104-15.688h.324z" fill-rule="nonzero"/><g opacity=".5"><path d="m77 276h260v13h-260z"/><path d="m77 305h172v13h-172z"/><path d="m77 334h226v13h-226z"/><path d="m77 363h130v13h-130z"/></g><g opacity=".5"><path d="m464 276h260v13h-260z"/><path d="m552 305h172v13h-172z"/><path d="m498 334h226v13h-226z"/><path d="m594 363h130v13h-130z"/></g></g></g></svg>