<svg xmlns="http://www.w3.org/2000/svg" viewBox="0 0 343.9772 285.8367"><defs><style>.cls-1{fill:#aee4ed;}.cls-2{fill:#30c5cc;}.cls-3{fill:#3d9cff;}.cls-4{fill:#f9a62b;}.cls-5{fill:#2d2e2c;}.cls-6{fill:#c6f4ff;}.cls-7{fill:#db5a28;}.cls-8{fill:#2f2f8e;}.cls-9{fill:#4c49a2;}.cls-10{fill:#fff;}.cls-11{fill:#e67750;}.cls-12{fill:#efefef;}.cls-13{fill:#fd9e71;}.cls-14{fill:#201251;}.cls-15{fill:#0b9b9b;}.cls-16{fill:#31d0a8;}.cls-17{fill:#feba40;}.cls-18{fill:#fedb9b;}.cls-19{fill:#4cb0dd;}.cls-20{fill:#75d5ef;}.cls-21{fill:#fdbe44;}.cls-22{fill:#98dbe5;}.cls-23{fill:#86d2e8;}.cls-24{fill:#f6fffa;}.cls-25{fill:#ffe780;}.cls-26{fill:#1fb288;}.cls-27{fill:#9e472d;}.cls-28{fill:#262845;}.cls-29{fill:#6aa5cc;}.cls-30{fill:#96c4ea;}.cls-31{fill:#1a133a;}.cls-32{fill:#e79673;}</style></defs><g id="OBJECTS"><path class="cls-1" d="M453.2979,405.1149c0,3.3059-20.3226,5.9858-45.3918,5.9858s-45.3919-2.68-45.3919-5.9858,20.3227-5.9857,45.3919-5.9857S453.2979,401.8091,453.2979,405.1149Z" transform="translate(-314.8311 -125.264)"/><ellipse class="cls-1" cx="298.0865" cy="272.3687" rx="45.8906" ry="4.4893"/><polygon class="cls-2" points="14.179 221.61 8.776 221.61 8.776 216.206 5.404 216.206 5.404 221.61 0 221.61 0 224.982 5.404 224.982 5.404 230.385 8.776 230.385 8.776 224.982 14.179 224.982 14.179 221.61"/><path class="cls-3" d="M333.93,336.9293a3.34,3.34,0,1,1-3.34-3.3417A3.34,3.34,0,0,1,333.93,336.9293Z" transform="translate(-314.8311 -125.264)"/><path class="cls-4" d="M43.7752,21.4665h254.26a18.4823,18.4823,0,0,1,18.4823,18.4823V236.428A18.4823,18.4823,0,0,1,298.0348,254.91H43.7753A18.4823,18.4823,0,0,1,25.293,236.428V39.9487A18.4822,18.4822,0,0,1,43.7752,21.4665Z"/><path class="cls-5" d="M389.3405,126.6427H582.1318a12.0129,12.0129,0,0,1,12.0129,12.0129V388.25a12.013,12.013,0,0,1-12.013,12.013H389.3405A12.0129,12.0129,0,0,1,377.3276,388.25V138.6556A12.0129,12.0129,0,0,1,389.3405,126.6427Z" transform="translate(434.3577 -347.5475) rotate(90)"/><path class="cls-6" d="M49.0262,36.0488H292.7838a7.76,7.76,0,0,1,7.76,7.76V232.5681a7.76,7.76,0,0,1-7.76,7.76H49.0262a7.76,7.76,0,0,1-7.76-7.76V43.8088A7.76,7.76,0,0,1,49.0262,36.0488Z"/><path class="cls-4" d="M322.64,365.1388a33.3279,33.3279,0,0,0,28.4627,16.1043H620.3693a33.3279,33.3279,0,0,0,28.4628-16.1043Z" transform="translate(-314.8311 -125.264)"/><path class="cls-5" d="M326.1215,369.8655H645.3508a33.57,33.57,0,0,0,3.4813-4.7267H322.64A33.57,33.57,0,0,0,326.1215,369.8655Z" transform="translate(-314.8311 -125.264)"/><rect class="cls-7" x="61.6499" y="157.4758" width="72.4939" height="40.57"/><rect class="cls-2" x="132.5592" y="53.6243" width="27.2709" height="3.7567"/><rect class="cls-2" x="97.2968" y="53.6243" width="16.6481" height="3.7567"/><rect class="cls-2" x="59.283" y="53.6243" width="32.9838" height="3.7567"/><rect class="cls-2" x="119.1571" y="53.6243" width="7.1529" height="3.7567"/><rect class="cls-2" x="166.7692" y="53.6243" width="16.5907" height="3.7567"/><rect class="cls-2" x="132.5592" y="64.5982" width="10.2307" height="3.7566"/><rect class="cls-2" x="146.8585" y="64.5982" width="10.2306" height="3.7566"/><rect class="cls-2" x="80.3372" y="64.5982" width="16.6481" height="3.7566"/><rect class="cls-2" x="59.283" y="64.5982" width="16.3336" height="3.7566"/><rect class="cls-2" x="101.5548" y="64.5982" width="27.4156" height="3.7566"/><path class="cls-8" d="M422.2048,398.22c-1.7237-5.5326-5.07-28.9408-5.8189-38.1086-.1581-1.942-21.49-10.2747-21.49-10.2747-12.4878-.3167-18.9139,4.5811-18.9139,4.5811l29.9847,10.1275c0,13.5233,11.5279,33.9191,11.5281,33.9192Z" transform="translate(-314.8311 -125.264)"/><path class="cls-9" d="M396.4825,367.2314l-8.9045,31.011,5.0866,1.1085c2.217-7.3159,15.0329-32.3849,15.38-35.3657.148-1.27.0567-2.2516-.4178-2.6494-.4777-.4-14.8492-8.9882-19.0241-9.9266-5.5918-1.2565-13.8954-3.27-13.8954-3.27a16.7482,16.7482,0,0,0-3.7688,12.8582C371.8508,368.96,396.4825,367.2314,396.4825,367.2314Z" transform="translate(-314.8311 -125.264)"/><path class="cls-10" d="M384.4663,312.7024s-9.7589.8649-10.2023,3.5252,4.6556,19.4971,4.6556,19.4971l-4.9573,13.2315s14.0747,3.4637,20.9332.88c.6511.2985,1.76-13.89,1.76-13.89l2.4434-6.971,3.099,10.5181,7.0942,9.9762,4.6556-3.7688-5.17-9.0869s-8.0019-18.261-10.1272-20.3864C394.66,312.2372,384.4663,312.7024,384.4663,312.7024Z" transform="translate(-314.8311 -125.264)"/><path class="cls-11" d="M392.2012,313.4045l-.7559-10.0351h-7.3159v9.3737c-.9262.1034.9976,7.5859,6.8927,7.5859C391.0221,320.329,393.7731,319.3314,392.2012,313.4045Z" transform="translate(-314.8311 -125.264)"/><path class="cls-12" d="M377.3716,330.4053c.8535,3.0256,1.548,5.3194,1.548,5.3194l-4.9573,13.2314s10.71,2.6347,17.9971,1.5926c-.6513-.4771-9.2913-6.3-9.7144-8.8383C381.3582,336.39,377.3716,330.4053,377.3716,330.4053Z" transform="translate(-314.8311 -125.264)"/><path class="cls-13" d="M398.7156,293.2378c-.6188-2.5692-4.6265-3.3129-10.9616-2.5683-4.3087.5064-5.2773,4.4719-5.3977,7.4194-.0647.0159-.1291.0231-.1939.043a3.5046,3.5046,0,0,0-2.4656,3.476,3.42,3.42,0,0,0,.8545,2.1345,3.5773,3.5773,0,0,0,2.6066,1.6632,3.3427,3.3427,0,0,0,.9013-.0182c1.7939,3.7338,5.0849,8.3866,9.7021,7.8311C400.5311,308.4857,398.7156,293.2378,398.7156,293.2378Z" transform="translate(-314.8311 -125.264)"/><path class="cls-14" d="M384.21,300a4.9111,4.9111,0,0,1,1.7575-5.7262c3.1564-2.37,3.37,1.1287,6.6973,1.5577s6.6119.1582,6.2545,2.3574c2.0144-4.9693-.8983-7.8117-4.154-9.3688s-8.3538-2.2292-11.8959.7263-3.0628,10.0539-3.0628,10.0539C382.1412,298.4717,382.7676,299.386,384.21,300Z" transform="translate(-314.8311 -125.264)"/><path class="cls-14" d="M382.8692,289.5467s-2.94-7.8977-8.51-5.9422-3.0583,13.18-3.6732,18.0643-4.1136,5.0975-5.37,2.9266c-2.3284,4.4266,6.7961,8.9265,9.7672,4.6714s1.2592-15.0372,3.1587-16.1365a3.6956,3.6956,0,0,1,3.8129.3291Z" transform="translate(-314.8311 -125.264)"/><path class="cls-10" d="M374.4857,315.3409c-2.344,1.3523-6.6508,17.5018-6.6508,20.1621s20.7679,15.9062,20.7679,15.9062.9581-3.27,3.175-3.9347c-.4433-.2217-15.5185-14.6318-15.5185-14.6318l3.99-11.2944S380.25,312.0155,374.4857,315.3409Z" transform="translate(-314.8311 -125.264)"/><polygon class="cls-2" points="72.183 228.18 93.352 227.531 107.097 232.63 83.829 233.865 72.183 228.18"/><polygon class="cls-15" points="83.829 233.865 72.183 229.353 72.183 228.18 84.75 232.714 83.829 233.865"/><polygon class="cls-15" points="83.829 233.865 90.826 214.761 113.97 216.003 107.097 233.073 83.829 233.865"/><path class="cls-2" d="M412.8745,348.4761c-.6884,1.3761-.48,2.8744.4642,3.3471s2.2687-.26,2.9568-1.6355.4805-2.8745-.4642-3.3472S413.5629,347.1,412.8745,348.4761Z" transform="translate(-314.8311 -125.264)"/><path class="cls-13" d="M391.7778,347.4745s8.4244,6.6508,7.5376,7.0942a10.4584,10.4584,0,0,1-6.6508-.6651c-1.9952-1.1085-4.0618-2.4944-4.0618-2.4944S389.3392,347.6962,391.7778,347.4745Z" transform="translate(-314.8311 -125.264)"/><path class="cls-14" d="M392.8863,397.799c1.4954,1.5152,6.583,3.8133,9.0895,4.4339,2.6873.6656,2.2169,2.9219.2529,2.9219-3.8555,0-12.4313-.4833-16.6583-.4833-.6651-1.9952.4805-4.6628,1.8262-6.4609C387.8059,397.6626,392.6718,397.5826,392.8863,397.799Z" transform="translate(-314.8311 -125.264)"/><path class="cls-14" d="M423.2584,397.799c1.4953,1.5152,6.583,3.8133,9.0895,4.4339,2.6873.6656,2.2169,2.9219.2528,2.9219-3.8554,0-12.4313-.4833-16.6582-.4833-.6651-1.9952.4805-4.6628,1.8262-6.4609C418.178,397.6626,423.0439,397.5826,423.2584,397.799Z" transform="translate(-314.8311 -125.264)"/><rect class="cls-16" x="62.0418" y="141.7061" width="20.3292" height="5.6013"/><rect class="cls-16" x="113.8148" y="141.7061" width="20.329" height="5.6013"/><rect class="cls-16" x="87.9283" y="141.7061" width="20.3292" height="5.6013"/><rect class="cls-17" x="447.1624" y="166.4721" width="66.3255" height="24.7081" transform="translate(-343.5981 -5.7359) rotate(-13.7767)"/><rect class="cls-18" x="449.0808" y="171.279" width="48.8537" height="3.4162" transform="translate(-342.4037 -7.5273) rotate(-13.7767)"/><rect class="cls-18" x="450.6421" y="178.1322" width="40.8218" height="3.4162" transform="translate(-344.1063 -7.9148) rotate(-13.7766)"/><rect class="cls-18" x="452.5345" y="187.1461" width="19.3684" height="3.4161" transform="translate(-346.5072 -9.7579) rotate(-13.7768)"/><rect class="cls-10" x="492.7028" y="171.6425" width="10.3734" height="3.4142" transform="translate(-341.7886 -1.7109) rotate(-13.7766)"/><rect class="cls-10" x="61.2754" y="76.4946" width="72.3484" height="59.0368"/><rect class="cls-19" x="139.041" y="110.5447" width="142.2824" height="26.6239"/><rect class="cls-10" x="238.5617" y="114.3979" width="38.5037" height="18.9181"/><rect class="cls-20" x="144.2439" y="115.5453" width="88.9971" height="3.6489"/><rect class="cls-20" x="144.2439" y="122.0322" width="88.9971" height="3.6489"/><rect class="cls-20" x="144.2439" y="128.5198" width="59.9166" height="3.6488"/><rect class="cls-10" x="139.0737" y="156.1868" width="136.7326" height="64.1549"/><rect class="cls-21" x="139.0737" y="156.1868" width="136.7326" height="10.6373"/><rect class="cls-22" x="142.39" y="181.949" width="78.9543" height="5.4149"/><rect class="cls-22" x="142.39" y="191.577" width="70.8048" height="5.4151"/><rect class="cls-22" x="142.39" y="201.2033" width="47.7538" height="5.4151"/><rect class="cls-22" x="142.39" y="173.0798" width="28.4598" height="5.4151"/><rect class="cls-23" x="229.0342" y="172.8158" width="41.2969" height="41.297"/><path class="cls-24" d="M568.736,318.4585a5.2286,5.2286,0,0,0,1.0369-3.1262v-3.1556a5.2592,5.2592,0,0,0-10.5183,0v3.1556a5.2319,5.2319,0,0,0,1.1382,3.2613,12.4072,12.4072,0,0,0-8.2844,11.7019H578.117S577.11,320.8863,568.736,318.4585Z" transform="translate(-314.8311 -125.264)"/><circle class="cls-7" cx="146.1387" cy="161.7725" r="2.6837"/><circle class="cls-25" cx="154.738" cy="161.7725" r="2.6837"/><circle class="cls-26" cx="164.7142" cy="161.7725" r="2.6837"/><rect class="cls-7" x="229.2505" y="51.0627" width="47.886" height="47.8859"/><path class="cls-27" d="M611.1292,389.0508s.4129,1.26-3.45,3.0226-7.9415,1.14-8.9419,2.6207a8.1029,8.1029,0,0,0-1.2342,2.8832H619.482s-.1663-6.069-2.6551-8.763C617.1439,389.3937,611.1292,389.0508,611.1292,389.0508Z" transform="translate(-314.8311 -125.264)"/><path class="cls-27" d="M635.0666,389.0417s.397,1.2113-3.3172,2.9062-7.6356,1.0964-8.5975,2.52a7.7915,7.7915,0,0,0-1.1867,2.7722h21.1325s-.16-5.8352-2.5529-8.4255C640.85,389.3714,635.0666,389.0417,635.0666,389.0417Z" transform="translate(-314.8311 -125.264)"/><polygon class="cls-10" points="291.966 148.214 276.008 151.02 264.785 126.995 281.971 125.592 291.966 148.214"/><path class="cls-28" d="M586.8733,271.0494a.019.019,0,0,1,.0131-.0011C586.8313,271.0724,586.8232,271.0746,586.8733,271.0494Z" transform="translate(-314.8311 -125.264)"/><path class="cls-13" d="M617.8453,228.41a21.334,21.334,0,0,0-2.1044,8.0667c0,2.6968.3428,6.5931.5491,8.6944a1.2135,1.2135,0,0,0,1.5645,1.0422l3.1474-.9684-.1754,4.5594,8.781-.1522,1.9162-18.4363S624.1584,223.1487,617.8453,228.41Z" transform="translate(-314.8311 -125.264)"/><path class="cls-14" d="M618.5079,238.0892s.4936-3.6506,3.2474-2.8948-.4027,4.4385-.4027,4.4385l2.63,4.7349a8.0776,8.0776,0,0,0,6.1378-.1754s2.9227-8.8851,2.9227-11.6909-2.5577-4.7007-2.5577-4.7007-6.8535-3.4245-10.5361-3.2492a4.2758,4.2758,0,0,0-4.0334,3.8581s-1.4029,2.8058,0,4.0333S618.5079,238.0892,618.5079,238.0892Z" transform="translate(-314.8311 -125.264)"/><path class="cls-29" d="M630.0039,247.1151l-.3964,2.5367-9.0733.0353S622.2879,246.8813,630.0039,247.1151Z" transform="translate(-314.8311 -125.264)"/><path class="cls-13" d="M591.19,269.7955s.635-1.9887-1.929-3.1565a7.4062,7.4062,0,0,0-1.0522-3.3319c-.5387-.5376-.8768,2.4551-.8768,2.4551s-2.5114-4.4718-3.1565-3.332,5.67,9.9373,5.8454,10.2881S591.19,269.7955,591.19,269.7955Z" transform="translate(-314.8311 -125.264)"/><path class="cls-14" d="M614.8057,298.6721l-6.0793,51.44,1.2337,39.8739,7.6514-.5468s2.1628-20.9724,2.3382-26.2333-1.4029-13.3276-1.4029-13.3276l7.716-31.7994,1.2828.2339.3539,31.3316,7.0287,39.7948,6.4321.31s.1591-20.5227-.367-25.6082-3.2734-15.2567-3.2734-15.2567l2.8058-32.4423a25.0356,25.0356,0,0,0-2.2213-18.1209C637.6614,298.38,614.8057,298.6721,614.8057,298.6721Z" transform="translate(-314.8311 -125.264)"/><path class="cls-30" d="M620.5342,249.6871s-10.8725,3.5073-12.86,5.4948-7.6866,22.4723-7.6866,22.4723l-8.59-8.6075-2.6624,6.2436s10.0542,14.9643,13.2108,15.432,10.288-18.9393,10.288-18.9393.6476,10.6,1.87,15.9a33.1642,33.1642,0,0,1,.7015,10.99c9.729,1.7663,18.004,1.4029,23.4987-.3507l2.7229-20.4241s3.7071.4326,4.8762-.8534-4.2087-22.4466-5.3778-24.0833-10.9182-3.3088-10.9182-3.3088Z" transform="translate(-314.8311 -125.264)"/><path class="cls-29" d="M631.121,263.7291c-.0582-.4151-.7436-.3141-.7283.0985a133.1662,133.1662,0,0,1-1.3513,26.06c-.0926.5838.7756.8508.9058.25A75.837,75.837,0,0,0,631.121,263.7291Z" transform="translate(-314.8311 -125.264)"/><path class="cls-29" d="M641.0992,270.2406c-.0586-.2938-.5046-.2162-.51.069a87.0546,87.0546,0,0,1-1.703,15.0886,53.476,53.476,0,0,0-1.3669,13.5489c.0406.6406,1.0325.6505,1.0053,0-.2219-5.2918.8545-10.4015,1.8172-15.5741C641.1416,279.0768,641.9667,274.5872,641.0992,270.2406Z" transform="translate(-314.8311 -125.264)"/><path class="cls-29" d="M613.229,270.0839c-2.9191,1.8553-4.0151,5.4872-5.133,8.5772-1.5122,4.18-3.0227,8.2871-6.3154,11.4237-.4906.4672.2417,1.1884.74.74,6.0784-5.4719,5.7891-14.4171,10.9732-20.3978C613.6478,270.2491,613.45,269.9434,613.229,270.0839Z" transform="translate(-314.8311 -125.264)"/><path class="cls-27" d="M638.4213,296.8016s-14.7305,1.87-23.6156-.9353c.2338,0,0,2.8058,0,2.8058a44.6384,44.6384,0,0,0,24.3171.9353C639.0194,299.5662,638.4213,296.8016,638.4213,296.8016Z" transform="translate(-314.8311 -125.264)"/><path class="cls-31" d="M485.9978,356.6748s-1.2193,2.66-3.3254,3.1037-7.6484,1.6627-8.5352,2.4386-.8868,2.7712-.8868,2.7712h17.5922s-.0313-5.3263-1.0525-8.0947C490.21,356.8965,485.9978,356.6748,485.9978,356.6748Z" transform="translate(-314.8311 -125.264)"/><path class="cls-31" d="M519.917,356.6748s-1.2193,2.66-3.3254,3.1037-7.6485,1.6627-8.5352,2.4386-.8868,2.7712-.8868,2.7712h17.5922s-.0313-5.3263-1.0525-8.0947C524.1292,356.8965,519.917,356.6748,519.917,356.6748Z" transform="translate(-314.8311 -125.264)"/><path class="cls-32" d="M517.76,183.7756s-4.9-1.25-5.1962-.47,7.5745,3.1081,7.5745,3.1081l7.0869,19.6507-2.653,6.2875,4.8772,5.3206s5.3207-7.205,5.7641-9.3111-12.6366-23.2779-12.6366-23.2779-2.5959-8.2492-2.9928-8.6461-5.083-.1476-6.1441-.1292,3.0887,4.22,3.0887,4.22Z" transform="translate(-314.8311 -125.264)"/><path class="cls-32" d="M498.6969,198.3221a17.9643,17.9643,0,0,0-2.8337,6.7694,22.8109,22.8109,0,0,0,.1663,6.8171l4.285-.1416v4.0088h8.5178a44.5631,44.5631,0,0,1,.4988-4.6986c.3325-1.6627,2.66-4.8218,2.66-4.8218l-3.8242-10.8076-5.4869-.4988Z" transform="translate(-314.8311 -125.264)"/><path class="cls-14" d="M500.8513,203.4288s1.4964-3.4917,3.3254-2.1615-.4988,4.1567-.4988,4.1567,1.1639,4.8219,3.1591,5.487l1.9953.665s5.1544-4.8218,5.9857-6.152-1.33-8.9786-2.8266-10.6413-7.981-1.4964-8.48-2.3278-2.1615-2.3278-3.8242-1.6627-1.33,6.152-1.33,6.152,2.0559,1.77,2.1919,3.0464a6.26,6.26,0,0,1-.8161,2.9678Z" transform="translate(-314.8311 -125.264)"/><path class="cls-14" d="M492.7959,216.0316s8.4988-1.241,13.3761-1.3518,12.6365,2.4386,12.6365,2.4386l5.6474-6.0462,7.1929,6.7606s-6.1227,9.0366-8.0959,11.1445-3.4142,11.9732-3.8576,14.9661-1.5519,20.5067-1.5519,20.5067-5.21,6.2074-26.6032-.5543c-.2217-.2217.8867-12.8582.7759-15.9619S489.4341,234.3,488.88,231.75s-9.3924-7.6513-9.3924-7.6513-1.0919-6.2106,2.9864-9.2C483.0049,215.234,492.7959,216.0316,492.7959,216.0316Z" transform="translate(-314.8311 -125.264)"/><path class="cls-32" d="M473.0287,190.626s-3.2146,2.9928-3.4362,4.2121,4.4228,15.108,4.4228,15.108l8.4585,4.9523-2.9864,9.2s-9.23-6.4263-10.56-8.3107-3.658-20.7284-3.658-20.7284-2.9929-3.7688-3.2145-4.7664-.9192-4.26-.4042-4.9014,3.9446-4.19,4.4467-3.1362,2.3481,8.7321,2.3481,8.7321S472.2528,189.2958,473.0287,190.626Z" transform="translate(-314.8311 -125.264)"/><path class="cls-9" d="M491.54,263.8958l-4.8219,45.4473-2.494,48.2185,8.3135.3325s5.1551-31.992,5.2379-36.8629-.0835-10.69-.0835-10.69l5.3206-24.2755h2.9929l6.152,31.5914,6.3183,39.24,6.6508.3325s.9976-24.4418,0-29.43-2.4941-9.81-2.4941-9.81L519.64,285.2339s2.66-11.639-1.4965-20.7838C517.3121,262.7874,491.54,263.8958,491.54,263.8958Z" transform="translate(-314.8311 -125.264)"/><polygon class="cls-21" points="125.913 86.931 120.51 86.931 120.51 81.527 117.138 81.527 117.138 86.931 111.734 86.931 111.734 90.302 117.138 90.302 117.138 95.706 120.51 95.706 120.51 90.302 125.913 90.302 125.913 86.931"/><path class="cls-2" d="M390.4477,253.8945a8.4484,8.4484,0,1,1,8.4484-8.4484A8.4595,8.4595,0,0,1,390.4477,253.8945Zm0-12.4878a4.04,4.04,0,1,0,4.0394,4.0394A4.0446,4.0446,0,0,0,390.4477,241.4067Z" transform="translate(-314.8311 -125.264)"/><polygon class="cls-2" points="335.414 51.016 330.01 51.016 330.01 45.612 326.639 45.612 326.639 51.016 321.235 51.016 321.235 54.388 326.639 54.388 326.639 59.792 330.01 59.792 330.01 54.388 335.414 54.388 335.414 51.016"/><path class="cls-3" d="M623.2411,139.4a3.34,3.34,0,1,1-3.34-3.3417A3.34,3.34,0,0,1,623.2411,139.4Z" transform="translate(-314.8311 -125.264)"/><path class="cls-17" d="M558.0484,198.0276a8.4484,8.4484,0,1,1,8.4483-8.4484A8.4595,8.4595,0,0,1,558.0484,198.0276Zm0-12.4878a4.04,4.04,0,1,0,4.0394,4.0394A4.0446,4.0446,0,0,0,558.0484,185.54Z" transform="translate(-314.8311 -125.264)"/><path class="cls-17" d="M602.9414,142.1607a8.4484,8.4484,0,1,1,8.4484-8.4484A8.4595,8.4595,0,0,1,602.9414,142.1607Zm0-12.4878a4.04,4.04,0,1,0,4.0394,4.0394A4.0446,4.0446,0,0,0,602.9414,129.6729Z" transform="translate(-314.8311 -125.264)"/></g></svg>